<svg preserveAspectRatio="none" overflow="visible" style="display: block;" width="24" height="38.7815" viewBox="0 0 24 38.7815" fill="none" xmlns="http://www.w3.org/2000/svg">
<g id="Courier from above" clip-path="url(#clip0_3027_82138)">
<path id="Vector" d="M50.1456 1.20798C57.9289 1.20798 65.7122 1.21593 73.4956 1.19208C74.0391 1.19208 74.1472 1.29857 74.1456 1.84374C74.1265 14.5542 74.1297 27.2647 74.1297 39.9735C66.135 39.9735 58.1403 39.9735 50.1456 39.9735C50.1456 27.0517 50.1456 14.1298 50.1456 1.20798Z" fill="white"/>
<path id="Vector_2" d="M8.25854 20.6686C7.8596 20.6257 7.66252 20.3221 7.45271 20.0392C7.78172 19.4289 7.74517 18.7756 7.71179 18.1128C7.66728 17.226 7.59576 16.3343 7.78331 15.4522C7.83099 15.2837 7.92 15.1407 8.0551 15.0278C8.28079 14.8879 8.50808 14.7687 8.77192 14.9356C8.95788 15.209 8.83073 15.4967 8.8053 15.778C8.68768 17.0845 9.47603 18.3894 10.6554 18.6326C12.1875 18.9489 13.5131 18.6215 14.2617 17.2403C14.4477 16.897 14.4588 16.4678 14.7751 16.1881C15.147 16.2739 15.4649 16.5171 15.867 16.5282C16.1579 16.5362 16.3279 16.7364 16.3836 17.0193C16.4392 17.3023 16.5838 17.5486 16.6872 17.8109C16.2882 18.8392 15.84 19.8405 15.0803 20.6654C13.9343 20.5844 12.7915 20.3762 11.6567 20.8466C11.3976 20.9547 10.827 21.0739 10.8254 20.3984C10.8254 20.1377 10.5934 20.2649 10.4646 20.2458C9.68106 20.1282 8.96742 20.3921 8.25536 20.667L8.25854 20.6686Z" fill="#CFCFD0"/>
<path id="Vector_3" d="M7.76742 24.4498C7.43523 23.555 7.6053 22.6347 7.66252 21.7272C7.68 21.4474 7.89775 21.1995 8.22199 21.1295C9.14066 20.7608 10.0975 20.942 11.0384 20.9595C11.5041 20.969 11.636 21.3266 11.6487 21.7351C11.6678 22.3947 11.6599 23.0543 11.6519 23.7139C11.6456 24.2686 11.3674 24.5277 10.8191 24.5388C9.89563 24.5579 8.97219 24.5293 8.04874 24.5611C7.93907 24.5642 7.8453 24.5261 7.76742 24.4482V24.4498Z" fill="#1B8874"/>
<path id="Vector_4" d="M9.70331 6.8249C9.75417 5.95868 9.80662 5.09245 9.85272 4.22464C9.8845 3.61272 10.1611 3.24874 10.8095 3.23126C11.1767 3.22172 11.5438 3.18834 11.911 3.18834C12.5563 3.18834 12.8503 3.52212 12.8726 4.16901C12.898 4.90331 12.9775 5.63762 13.0331 6.37033C13.2493 6.95364 12.9854 7.20477 12.426 7.23497C11.7489 7.27152 11.0718 7.2747 10.3963 7.23179C10.1054 7.21271 9.81934 7.15709 9.7049 6.8249H9.70331Z" fill="#1C1C1C"/>
<path id="Vector_5" d="M10.0037 33.2233C9.97033 33.1836 9.90834 33.1438 9.90834 33.1025C9.91788 31.5958 9.33298 30.1367 9.54596 28.6124C10.3454 28.2755 10.5997 28.3391 11.1306 29.0082C11.7234 28.196 12.0652 28.2342 12.6485 29.0718C12.925 29.4707 13.1873 29.8283 13.1476 30.3465C13.1269 30.6056 13.3987 30.4307 13.5068 30.5181C13.4972 30.7422 13.5624 30.9823 13.3621 31.1619C13.1936 31.2906 13.0299 31.4241 12.8392 31.5195C12.1462 31.7992 11.4262 31.6752 10.7158 31.653C10.5473 31.6657 10.3295 31.4448 10.2278 31.7626C10.1944 32.1012 10.2342 32.4397 10.2087 32.7767C10.1881 32.9468 10.1499 33.1089 10.0053 33.2217L10.0037 33.2233Z" fill="#CECDCE"/>
<path id="Vector_6" d="M7.94384 15.4347C7.80556 16.6538 7.95497 17.8744 7.93907 19.0935C7.9343 19.4829 7.98358 19.9136 7.45271 20.0376C6.27656 18.6517 5.68848 17.0305 5.56132 15.2344C5.53907 14.9197 5.5502 14.6034 5.4294 14.3046C5.64238 13.9121 5.96503 13.9391 6.31629 14.0662C6.37828 14.1139 6.45139 14.1679 6.4657 14.2426C6.61987 15.0628 7.11894 15.449 7.94384 15.4347Z" fill="#CFCFCF"/>
<path id="Vector_7" d="M9.70331 6.8249C10.6967 7.11258 11.7171 6.84874 12.7216 6.96318C13.146 7.01086 12.9107 6.56265 13.0331 6.36874C13.5497 7.3351 13.6371 8.41113 13.823 9.46172C13.823 9.56026 13.7754 9.60636 13.6768 9.60159C13.0776 9.28212 12.4228 9.15656 11.7616 9.05324C11.3102 8.87841 10.8524 9.03576 10.3979 9.03576C10.1483 8.83867 9.52053 9.20901 9.59682 8.50172C9.60477 8.42702 9.44265 8.44768 9.34252 8.55099C9.1804 8.71788 9.28053 9.12 8.87841 9.06914C8.90702 8.65748 8.94993 8.24424 8.98967 7.83576C9.04053 7.31126 9.21218 6.98543 9.70331 6.82649V6.8249Z" fill="#CECFCF"/>
<path id="Vector_8" d="M16.6887 17.8125C15.937 17.7823 16.4185 16.9796 16.0244 16.746C15.6763 16.5377 15.0866 16.978 14.8816 16.3359C14.8673 16.2914 14.8132 16.2596 14.7783 16.2215C14.5128 15.8925 14.3841 15.5205 14.4175 15.0962C14.7433 14.7274 15.1327 14.7592 15.5507 14.9086C15.8352 15.0087 16.1404 15.1725 16.3804 14.8164C16.7094 14.3046 16.5584 13.6991 16.7094 13.1539C16.7396 13.0824 16.7714 13.0013 16.8366 12.9632C17.3372 12.6564 17.0638 12.4705 16.7364 12.2877C16.7015 12.1097 16.7332 11.9539 16.889 11.8411C17.2514 11.6948 17.6058 11.6519 17.9301 11.9348C17.7727 13.6879 17.6551 15.4458 17.0416 17.1211C16.951 17.3674 16.9081 17.6328 16.6919 17.8156L16.6887 17.8125Z" fill="#CFCFCF"/>
<path id="Vector_9" d="M10.0037 33.2233L10.0323 32.7417C10.0864 32.6352 10.1277 32.5256 10.1531 32.4079C10.3073 32.098 9.86225 31.5528 10.533 31.4479C11.3102 31.386 12.1065 31.6005 12.8694 31.3001C13.1603 31.1825 13.2652 31.3367 13.2556 31.591C13.2318 32.187 13.3462 32.7894 13.1857 33.3807C13.0331 33.7287 13.1507 34.2644 12.5483 34.2993C12.4927 34.2564 12.4323 34.223 12.3672 34.1976C11.876 34.1642 11.3881 34.2151 10.8985 34.2517C10.7619 34.2691 10.6172 34.223 10.4885 34.3089C9.93377 34.1245 10.196 33.573 10.0037 33.2265V33.2233Z" fill="#1A1B1C"/>
<path id="Vector_10" d="M7.78967 27.7891C7.39868 26.9229 7.64821 26.0201 7.63868 25.1317C7.81669 24.9489 8.04715 24.8853 8.28556 24.906C9.33616 24.9997 10.4185 24.6389 11.4389 25.1285C11.3563 25.5799 10.978 25.4607 10.6983 25.4893C10.1261 25.5497 9.5396 25.4241 8.82596 25.6339C9.48874 25.7404 10.0148 25.6577 10.5346 25.6895C10.8715 25.7102 11.2291 25.653 11.5105 25.9184C11.7552 26.5335 11.6678 27.1629 11.5899 27.7891C11.4596 28.0943 11.3086 28.0148 11.1306 27.8225C10.7634 27.4299 10.2834 27.4077 9.9306 27.7224C9.46967 28.1324 9.0294 28.0673 8.54781 27.8925C8.29828 27.8019 8.06464 27.6826 7.79126 27.7891H7.78967Z" fill="#1B8874"/>
<path id="Vector_11" d="M15.902 25.9168C15.902 26.0726 15.902 26.2283 15.9036 26.3841C15.2742 26.8021 14.934 27.4713 14.4683 28.0307C14.2204 28.3279 12.9187 28.436 12.5754 28.258C12.3687 28.1515 12.3433 28.0037 12.3958 27.7987C12.534 27.2615 12.5213 26.694 12.7168 26.1679C12.9823 25.4432 13.5083 25.1555 14.2633 25.2191C14.5256 25.2413 14.7926 25.2254 15.0501 25.1491C15.6858 25.014 15.7097 25.5592 15.9036 25.9168H15.902Z" fill="#1B8874"/>
<path id="Vector_12" d="M8.25854 20.6686C9.12636 19.6275 10.2755 20.1648 11.3118 20.0297C11.404 20.4604 10.8731 20.2713 10.9494 20.6162C11.2927 20.6813 11.6154 20.6098 12 20.5224C13.0125 20.2919 14.0837 20.0567 15.0819 20.667C15.0819 20.7703 15.0819 20.8736 15.0803 20.977C14.7576 21.3075 14.3396 21.2011 13.9566 21.2026C13.297 21.2042 12.6389 21.2551 11.9793 21.2106C11.8252 21.2217 11.6789 21.1899 11.5375 21.1359C10.7873 20.9817 10.0291 21.1089 9.27576 21.0628C8.99444 21.0453 8.70199 21.1454 8.43497 20.9801C8.37616 20.8768 8.31894 20.7735 8.26013 20.6702L8.25854 20.6686Z" fill="#CFCFCA"/>
<path id="Vector_13" d="M11.9475 21.0517C12.9918 21.0262 14.036 21.0008 15.0803 20.9754C15.7287 21.1756 15.9751 21.6302 15.9417 22.2898C15.9068 22.9669 15.9052 23.6456 15.8893 24.3242C14.8864 24.7264 13.8596 24.5452 12.8376 24.4514C12.5261 24.2146 12.7518 24.1033 12.9568 24.0286C13.2842 23.9078 13.6355 23.9348 13.9756 23.9475C14.5017 23.9666 14.7497 23.7075 14.8117 23.2101C14.8339 23.0273 14.8991 22.835 14.8577 22.6617C14.7513 22.2056 15.2885 21.476 14.3253 21.3743C13.2826 21.2646 12.6135 21.7144 12.4768 22.6395C12.4069 23.1083 12.4975 23.5899 12.3958 24.0588C12.3735 24.1637 12.3226 24.2559 12.2511 24.337C12.1558 24.3767 12.0747 24.3592 12.0048 24.2845C11.7234 23.2117 11.7934 22.1325 11.9491 21.0532L11.9475 21.0517Z" fill="#1B8874"/>
<path id="Vector_14" d="M13.5052 30.5181C13.2954 30.5801 13.3987 31.0013 13.111 30.9171C12.8313 30.836 12.8392 30.5579 12.9028 30.3179C13.0125 29.8967 12.995 29.5438 12.5102 29.369C12.3338 29.3054 12.3068 29.1672 12.3465 28.986C12.4276 28.6188 12.1637 28.6156 11.9158 28.6156C11.671 28.6156 11.4008 28.6124 11.4771 28.9796C11.5232 29.2053 11.4644 29.3515 11.2419 29.3801C11.1274 29.3944 10.8985 29.3356 10.8954 29.2959C10.8127 28.3264 10.0784 28.6713 9.54596 28.614C9.23921 28.2644 8.74013 28.6426 8.42543 28.32C9.34093 27.8781 10.3057 28.0991 11.2546 28.1086C11.3499 28.1229 11.4437 28.1245 11.5391 28.1118C11.7298 28.0784 11.9205 28.0816 12.1113 28.1038C12.205 28.1245 12.2972 28.1515 12.3878 28.1849C13.0967 28.2167 13.804 28.293 14.5081 28.1229C14.7719 28.0593 15.0342 28.0848 15.2328 28.3121C14.7242 28.6776 13.92 28.1404 13.6228 28.6156C13.3796 29.005 13.7372 29.6742 13.618 30.2225C13.5958 30.3242 13.5433 30.4196 13.5036 30.5166L13.5052 30.5181Z" fill="#D0CECA"/>
<path id="Vector_15" d="M15.2344 28.3121C14.2347 28.2135 13.2302 28.4328 12.2321 28.2675C11.7616 27.2233 11.9968 26.4652 12.8662 26.2299C12.7073 26.8355 12.7693 27.4808 12.5245 28.0721C14.0456 28.169 14.373 28.4869 14.9388 26.6559C15.0119 26.4191 15.1788 26.1298 15.3378 26.3046C15.627 26.6225 15.7272 26.4699 15.9052 26.3841C15.9687 26.702 15.9767 27.0215 15.9004 27.3393C15.7542 27.5317 15.7478 27.7987 15.5666 27.9703C15.457 28.0848 15.3457 28.1992 15.236 28.3136L15.2344 28.3121Z" fill="#1B8874"/>
<path id="Vector_16" d="M6.30358 14.1552C6.00318 14.1552 5.69801 14.1219 5.4294 14.3046C5.41828 13.4686 5.40874 12.631 5.39762 11.795C5.71391 11.4723 6.09219 11.547 6.47205 11.6265C6.61192 11.6837 6.71523 11.7743 6.74543 11.9301C6.72636 12.391 6.75815 12.8519 6.72318 13.3128C6.69775 13.645 6.66914 13.9883 6.30358 14.1552Z" fill="#D0D0CD"/>
<path id="Vector_17" d="M11.4342 28.2405C10.436 28.444 9.42675 28.2071 8.42702 28.32C8.16 28.2087 7.86914 28.1277 7.79126 27.7891C7.73722 27.2758 8.07099 27.4458 8.28556 27.5396C8.84185 27.7844 9.32185 28.1992 9.87656 27.414C10.1658 27.0056 11.1815 27.4315 11.4294 27.9767C11.5121 28.0625 11.5216 28.1499 11.4358 28.2389L11.4342 28.2405Z" fill="#1B8874"/>
<path id="Vector_18" d="M5.91576 9.6906C6.5102 9.71603 7.1253 9.64132 7.64344 10.045C8.06146 10.1007 8.30464 10.2548 8.01695 10.7094C7.94384 10.8064 7.85325 10.8811 7.74358 10.9319C7.40503 11.0416 7.04106 11.0273 6.7057 11.1544C5.8951 11.2848 5.80768 11.226 5.62172 10.4297C5.65033 10.3073 5.72185 10.2167 5.83152 10.1579C5.93483 10.1086 6.04291 10.107 6.15258 10.1197C6.18914 10.1309 6.22728 10.1468 6.26702 10.1515C6.32742 10.1595 6.34331 10.1547 6.30358 10.1452C6.08742 10.0498 5.86172 10.1611 5.65033 10.0927C5.6249 10.0673 5.59947 10.0419 5.57404 10.0148C5.55974 9.9751 5.5502 9.93377 5.54861 9.89245C5.53748 9.57775 5.72027 9.62066 5.91894 9.69218L5.91576 9.6906Z" fill="#252524"/>
<path id="Vector_19" d="M5.71709 10.3438C5.81404 10.8906 6.05086 11.2291 6.67709 10.9875C6.91073 11.3007 6.8551 11.5613 6.53563 11.7743C6.15735 11.7807 5.77748 11.787 5.39921 11.7934C5.10358 11.4739 4.7396 11.4199 4.32159 11.458C3.85272 11.4993 3.68106 11.2895 3.92424 10.8413C4.18331 10.8683 4.49483 11.4278 4.68715 10.7666C4.95099 10.4313 5.12106 9.86543 5.71709 10.3423V10.3438Z" fill="#F1C2AA"/>
<path id="Vector_20" d="M8.43338 20.9785C9.47762 21.023 10.525 20.8864 11.5661 21.0421C11.7664 21.2058 11.8363 21.4347 11.8188 21.6731C11.7489 22.6236 12.0381 23.5995 11.6249 24.5261C10.3899 24.7661 9.15815 24.9012 7.93748 24.4546C8.83391 24.1701 9.75417 24.337 10.6601 24.3433C11.307 24.3481 11.493 24.1287 11.4421 23.5248C11.3992 23.0289 11.3928 22.5234 11.4421 22.0291C11.5105 21.3568 11.3118 21.0739 10.5838 21.1327C9.80185 21.1947 9.00874 21.1359 8.22199 21.1295C8.29192 21.0803 8.36185 21.0294 8.43338 20.9801V20.9785Z" fill="#1B8874"/>
<path id="Vector_21" d="M16.0419 9.89563C16.0959 9.89563 16.1515 9.89563 16.2056 9.89563C16.3152 9.97192 16.4789 9.90199 16.5711 10.0275C16.6204 10.1213 16.6252 10.2199 16.5981 10.3216C16.5759 10.382 16.5489 10.4424 16.5282 10.5044C16.5902 10.4774 16.657 10.4646 16.7253 10.4567C17.0321 10.5441 17.5438 10.4392 17.2768 11.0543C17.0368 11.1974 16.7777 11.1862 16.5155 11.156C16.0021 11.0162 15.4633 11.075 14.9468 10.9621C14.6718 10.8381 14.2999 10.7952 14.4095 10.3391C14.6623 10.1166 14.9499 10.1833 15.2344 10.2485C15.5921 10.3295 15.8511 10.1992 16.0387 9.89722L16.0419 9.89563Z" fill="#1A1718"/>
<path id="Vector_22" d="M7.62596 24.9759C7.62278 24.8599 7.6196 24.7423 7.61642 24.6262C8.85775 24.4864 10.1038 24.6024 11.3468 24.5658C11.4453 24.5595 11.5375 24.5833 11.6233 24.6326C11.6678 24.7232 11.6758 24.817 11.6487 24.9139C11.5899 25.0013 11.5089 25.0426 11.404 25.0426C10.1452 24.9934 8.88318 25.1174 7.62437 24.9775L7.62596 24.9759Z" fill="#120C14"/>
<path id="Vector_23" d="M7.62596 24.9759C8.93881 24.9807 10.2501 24.9854 11.5629 24.9902C11.8331 25.1905 11.8315 25.4925 11.8077 25.769C11.7362 26.6066 12.0461 27.4776 11.5899 28.2803C11.5375 28.2675 11.4866 28.2532 11.4342 28.2405C11.4326 28.1531 11.4294 28.0657 11.4278 27.9783C11.4278 27.2901 11.4278 26.6019 11.4278 25.9136C11.2689 25.7022 11.2641 25.4909 11.423 25.2779C10.7301 24.9409 9.99576 25.1857 9.28212 25.1332C8.73695 25.0919 8.18702 25.1301 7.64027 25.1332C7.6355 25.0808 7.63073 25.0299 7.62755 24.9775L7.62596 24.9759Z" fill="#1B8874"/>
<path id="Vector_24" d="M8.88 9.06755C9.19152 8.85934 8.9102 8.24583 9.49351 8.20132C9.70013 8.18543 9.94013 8.04715 10.0371 8.29669C10.1531 8.5955 9.77007 8.53033 9.63974 8.68132C9.88609 8.74331 10.107 8.79894 10.3264 8.85298C10.0482 9.25669 9.54596 9.17086 9.17881 9.38225C9.02623 9.4204 8.87046 9.49351 8.72901 9.35682C8.72106 9.22967 8.7751 9.13589 8.88159 9.06755H8.88Z" fill="#C9C9CC"/>
<path id="Vector_25" d="M14.4747 10.3407C14.4064 10.6808 14.7656 10.614 14.8879 10.773C14.8736 10.9224 14.7958 11.0416 14.7115 11.1608C14.6479 11.2498 14.5732 11.3309 14.4906 11.4024C14.4016 11.4723 14.303 11.5216 14.1838 11.5057C13.5703 11.102 14.0805 10.4726 13.8803 9.98464C13.9009 9.90834 13.9486 9.8543 14.0185 9.81934C14.3746 10.107 14.8514 9.95126 15.2313 10.1468C15.031 10.4138 14.6893 10.1293 14.4747 10.3407Z" fill="#F3705B"/>
<path id="Vector_26" d="M15.8972 24.4705C16.0291 24.6501 16.053 24.8328 15.9052 25.0156C15.8209 24.9981 15.7415 24.9679 15.6652 24.9298C14.8355 24.7724 13.9979 24.8948 13.165 24.8551C12.8281 24.8392 12.4832 24.898 12.1605 24.7454C12.0699 24.6962 12.0286 24.6199 12.035 24.5166C12.0938 24.4339 12.1732 24.3894 12.2734 24.3815C13.4797 24.4514 14.6924 24.3226 15.8972 24.4689V24.4705Z" fill="#10090D"/>
<path id="Vector_27" d="M18.7327 10.4678C18.9981 10.5997 19.262 10.7317 19.5274 10.862C19.7356 11.7155 19.0458 11.2355 18.7709 11.3722C18.1812 11.1354 18.1732 10.9542 18.7327 10.4678Z" fill="#0F0E10"/>
<path id="Vector_28" d="M11.5852 24.6294C10.2628 24.6294 8.9404 24.6278 7.61801 24.6262C7.59258 24.5038 7.68159 24.4768 7.76742 24.4498C7.82464 24.4514 7.88027 24.4546 7.93748 24.4562C9.14384 24.4625 10.3518 24.4705 11.5581 24.4768C11.6026 24.5038 11.6217 24.5356 11.6154 24.5722C11.6074 24.6103 11.5979 24.6294 11.5852 24.6294Z" fill="#10090D"/>
<path id="Vector_29" d="M15.9052 25.0156C15.9417 25.057 15.9385 25.0967 15.8972 25.1332C15.4872 25.2779 15.0485 25.1714 14.6352 25.2747C13.8294 25.1777 13.0172 25.4877 12.2114 25.2477C12.1176 25.2032 12.0588 25.1317 12.0318 25.0315C12.0699 24.9362 12.1383 24.871 12.2352 24.8376C13.4448 24.8328 14.6591 24.6707 15.8638 24.9266C15.8845 24.9536 15.8988 24.9838 15.9052 25.0172V25.0156Z" fill="#1B8874"/>
<path id="Vector_30" d="M15.8972 24.4705C14.6305 24.4736 13.3637 24.4768 12.097 24.48C12.0556 24.4419 12.0445 24.4037 12.0604 24.3672C12.0763 24.3322 12.0906 24.3131 12.1049 24.3131C12.1478 24.3099 12.1891 24.3068 12.2321 24.3036C12.3958 24.1923 12.5547 24.1875 12.7089 24.3195C13.769 24.3195 14.8291 24.3226 15.8893 24.3242C15.9195 24.3719 15.9226 24.4196 15.8972 24.4705Z" fill="#1B8874"/>
<path id="Vector_31" d="M4.8 10.8143C4.85881 11.1465 4.77457 11.307 4.38199 11.3468C3.92424 11.3928 3.94331 11.129 3.92106 10.8429C4.02914 10.614 4.3057 10.6411 4.46464 10.4901C4.70781 10.463 4.81113 10.5791 4.79841 10.8143H4.8Z" fill="#2F2D2D"/>
<path id="Vector_32" d="M8.72742 9.35682C8.83391 9.32185 8.94199 9.2853 9.04848 9.25033C9.14861 9.33775 9.14543 9.44583 9.11205 9.56185C8.75444 9.96079 8.56212 10.5346 7.94861 10.6633C8.14411 10.3105 7.88662 10.1817 7.64344 10.045C8.23629 10.1817 8.43497 9.69377 8.72742 9.35682Z" fill="#F3705B"/>
<path id="Vector_33" d="M12.5436 34.1865C12.5436 34.2246 12.5436 34.2612 12.5468 34.2993C11.8601 34.4344 11.1751 34.5759 10.4885 34.3073C10.5934 34.2628 10.6983 34.2183 10.8032 34.1738C11.3849 34.0577 11.965 34.0403 12.5452 34.1865H12.5436Z" fill="#050607"/>
<path id="Vector_34" d="M16.3629 9.86702C16.9144 9.6445 17.4962 9.70331 18.0699 9.67788C18.2527 9.68106 18.5038 9.47126 18.569 9.83841C18.4689 9.85907 18.3672 9.88132 18.267 9.90199C18.0731 10.0482 17.8411 10.0895 17.6154 10.1515C17.458 10.1865 17.2991 10.1833 17.1417 10.1515C16.8731 10.0832 16.5997 10.0244 16.3629 9.86702Z" fill="#2F2D2D"/>
<path id="Vector_35" d="M18.7327 10.4678C18.4901 10.9012 18.4837 11.1825 18.7136 11.3118C18.7693 11.3229 18.7931 11.342 18.7852 11.3722C18.7756 11.4072 18.7645 11.4246 18.7486 11.4246C18.4291 11.4294 18.1844 11.5979 17.9475 11.7838C17.9253 11.7536 17.903 11.725 17.8808 11.6948C17.8442 11.1942 18.2019 10.7984 18.2464 10.3184C18.3163 10.2723 18.3815 10.2739 18.4434 10.3311C18.5595 10.3343 18.6739 10.3407 18.7327 10.4662V10.4678Z" fill="#E8C2AF"/>
<path id="Vector_36" d="M13.1841 33.3807C13.1968 32.8609 13.2079 32.3412 13.2254 31.8215C13.235 31.5544 13.2731 31.2779 12.8678 31.2985C12.995 31.1205 13.1825 31.1587 13.3605 31.1619C13.3128 31.9025 13.5068 32.6607 13.1841 33.3791V33.3807Z" fill="#D0CECA"/>
<path id="Vector_37" d="M4.8 10.8143C4.68874 10.7062 4.57748 10.5981 4.46623 10.4901C4.82066 10.2993 5.12583 9.99576 5.56927 10.0148L5.5645 10.0053C5.62808 10.1388 5.81086 10.0721 5.88238 10.1913C5.82675 10.2421 5.77113 10.293 5.71709 10.3438C5.2196 10.1245 5.01775 10.4853 4.80159 10.8143H4.8Z" fill="#EAC5B6"/>
<path id="Vector_38" d="M18.4434 10.3327C18.3846 10.3359 18.3258 10.3407 18.267 10.3438C18.062 10.5425 17.8919 10.8477 17.5359 10.5823C17.466 10.4932 17.4199 10.3947 17.423 10.2787C17.4374 10.2262 17.4675 10.1865 17.5089 10.1563C17.5963 10.0911 17.7107 10.1277 17.8029 10.0816C17.7155 10.1007 17.6456 10.0816 17.6106 9.9894C17.8156 9.84795 18.0429 9.87497 18.2686 9.90358C18.3274 10.0466 18.3846 10.1913 18.4434 10.3343V10.3327Z" fill="#EEC3AF"/>
<path id="Vector_39" d="M14.6225 25.1348C15.0469 25.1348 15.4713 25.1348 15.8956 25.1332C15.8972 25.3939 15.9004 25.6562 15.902 25.9168C15.6016 25.7404 15.6127 25.1698 15.0898 25.2779C14.9023 25.3367 14.6797 25.5068 14.6225 25.1364V25.1348Z" fill="#1B8874"/>
<path id="Vector_40" d="M5.91576 9.6906C5.7743 9.72397 5.62013 9.7351 5.54543 9.89086C5.18305 9.80821 4.82225 9.72556 4.45987 9.64291C4.96689 9.49669 5.45007 9.47762 5.91576 9.6906Z" fill="#353535"/>
<path id="Vector_41" d="M14.4747 10.3407C14.6575 10.0037 14.996 10.2723 15.2328 10.1468C15.5491 10.2135 15.7923 10.045 16.0419 9.89563C15.7144 10.7301 14.996 10.1897 14.4747 10.3407Z" fill="#121010"/>
<path id="Vector_42" d="M18.569 9.83841C18.4021 9.78437 18.2368 9.73192 18.0699 9.67788C18.4037 9.54119 18.7423 9.47444 19.1062 9.58093C19.0379 9.9306 18.7868 9.84954 18.569 9.83841Z" fill="#646364"/>
<path id="Vector_43" d="M18.747 11.4246C18.7407 11.3849 18.7295 11.3468 18.7121 11.3118C18.9886 11.1735 19.5338 11.5168 19.5258 10.862C19.6434 11.2615 19.3838 11.449 18.747 11.4246Z" fill="#444142"/>
<path id="Vector_44" d="M17.9269 11.9317L16.8334 11.9348C16.7396 11.9825 16.6776 11.9555 16.649 11.8538C16.6983 11.7203 16.8064 11.6551 16.9335 11.6138C17.2864 11.5486 17.6344 11.5184 17.9428 11.7584L17.946 11.7838C17.946 11.8347 17.9412 11.8824 17.9269 11.9301V11.9317Z" fill="#D4CCC6"/>
<path id="Vector_45" d="M13.6991 9.52689C13.7483 9.51894 13.7897 9.49828 13.8246 9.46172C13.8898 9.58093 13.955 9.70013 14.0201 9.81934L13.9693 9.87815C13.9121 9.92583 13.8453 9.95762 13.7722 9.97033C13.494 9.96397 13.235 9.93219 13.2286 9.56185C13.2413 9.48715 13.2715 9.42199 13.3208 9.36318C13.502 9.29166 13.5751 9.46967 13.6991 9.52689Z" fill="#F3705B"/>
<path id="Vector_46" d="M16.3629 9.86702C16.6204 9.94172 16.9192 9.77801 17.1513 10.0005C17.0829 10.1118 16.9764 10.1515 16.8524 10.1626C16.7285 10.1626 16.6236 10.1118 16.533 10.0307C16.4233 9.98622 16.3152 9.94013 16.2056 9.89563L16.3613 9.86702H16.3629Z" fill="#0C0B0B"/>
<path id="Vector_47" d="M15.565 27.9703C15.5968 27.7176 15.6779 27.4903 15.8988 27.3393C15.9338 27.627 15.8877 27.8718 15.565 27.9703Z" fill="#1B8874"/>
<path id="Vector_48" d="M14.4731 15.0914C14.6289 15.4538 14.8228 15.805 14.7783 16.2215C14.6432 17.5852 13.8628 18.5181 12.604 18.8392C11.3515 19.1571 10.1118 19.022 9.16291 17.8713C8.40477 16.9526 8.53828 15.9799 8.74013 14.9611C8.64318 14.8673 8.63523 14.7576 8.67656 14.6368C8.91656 14.3777 9.1645 14.125 9.4045 13.8644C10.4742 13.0856 11.6233 12.7216 12.9314 13.1952C13.583 13.4972 14.0996 13.9581 14.5049 14.5494C14.5621 14.6543 14.586 14.7672 14.5748 14.8864C14.5558 14.9626 14.5208 15.031 14.4731 15.093V15.0914Z" fill="white"/>
<path id="Vector_49" d="M6.30358 14.1552C6.54675 13.7213 6.50384 13.2445 6.51815 12.774C6.52768 12.4991 6.40212 12.1923 6.65483 11.9539C7.12689 12.3211 7.23497 12.925 7.58464 13.3717C7.77854 13.955 8.1457 14.4858 8.11073 15.1375C8.0551 15.236 8.00106 15.3362 7.94543 15.4363C6.93298 15.7732 6.49589 15.4315 6.30517 14.1568L6.30358 14.1552Z" fill="#9D9D9D"/>
<path id="Vector_50" d="M8.10914 15.1375C7.7706 14.5891 7.55921 13.9963 7.46384 13.3589C7.54967 13.2604 7.66411 13.2238 7.78967 13.2175C8.0106 13.2302 8.16636 13.3287 8.22834 13.5513C8.28079 13.7801 8.18861 14.0615 8.46993 14.2061C8.59073 14.284 8.71629 14.3555 8.79576 14.4811C8.8196 14.5542 8.8053 14.6193 8.75285 14.6766C8.74967 14.7703 8.7449 14.8657 8.74172 14.9595C8.4906 14.8752 8.34755 15.1724 8.11073 15.1375H8.10914Z" fill="#161B2E"/>
<path id="Vector_51" d="M10.533 31.4479C10.0959 31.7261 10.5346 32.284 10.1674 32.5844C9.96397 32.2363 10.2087 31.8262 10.018 31.4766C10.1706 31.1253 10.3597 31.4114 10.533 31.4479Z" fill="#242526"/>
<path id="Vector_52" d="M10.018 31.4766C10.3057 31.8135 10.107 32.2172 10.1674 32.5844C10.1213 32.6368 10.0768 32.6893 10.0307 32.7417C10.026 32.3205 10.0212 31.8993 10.0164 31.4766H10.018Z" fill="#101213"/>
<path id="Vector_53" d="M13.3446 9.39338C13.3446 9.44424 13.343 9.49669 13.3415 9.54755C13.0379 9.7049 13.4464 10.1388 13.0617 10.266C11.9762 9.25192 10.649 9.62066 9.38543 9.62066C9.30596 9.63179 9.22808 9.62861 9.1502 9.61272C9.11682 9.59046 9.08503 9.56821 9.05166 9.54596C9.05166 9.44742 9.05007 9.34728 9.04848 9.24874C9.42834 8.97219 9.87815 8.91497 10.3248 8.85298C10.8064 8.91815 11.3054 8.45086 11.7743 8.90225C12.2654 9.16609 12.8885 9.01351 13.343 9.39338H13.3446Z" fill="#F3705B"/>
<path id="Vector_54" d="M13.3446 9.39338C12.7725 9.28053 12.1987 9.16768 11.6265 9.05324C11.6138 9.05007 11.5979 9.00397 11.5995 9.00238C11.6567 8.96742 11.7155 8.93404 11.7743 8.90225C12.4705 8.9404 13.2032 8.8657 13.6975 9.52689C13.5799 9.48238 13.4607 9.43788 13.343 9.39338H13.3446Z" fill="#F3705B"/>
<path id="Vector_55" d="M16.6824 11.9396C16.7317 11.9332 16.7825 11.9317 16.8334 11.9348C16.8381 12.0906 16.8429 12.2479 16.8461 12.4037C17.0384 12.6167 16.9955 12.8297 16.8493 13.0442C16.7809 13.6895 16.9637 14.3762 16.5409 14.9642C15.8082 15.1168 15.9767 14.3317 15.6238 14.0869C15.5269 13.8596 15.5301 13.6323 15.6223 13.405C16.0641 12.9823 16.0943 12.2591 16.6824 11.9396Z" fill="#9C9D9D"/>
<path id="Vector_56" d="M15.689 14.1425C15.8781 14.0932 16.0721 14.0487 16.0403 14.3539C16.0005 14.7322 16.2819 14.8355 16.5409 14.9626C16.3375 15.4522 15.8988 15.3568 15.6397 15.1693C15.2281 14.8721 14.8673 14.9897 14.4715 15.0898C14.4699 15.0374 14.4683 14.9849 14.4652 14.9324C14.6241 14.605 15.023 14.6193 15.2456 14.3809C15.3838 14.2856 15.4872 14.1234 15.6874 14.1425H15.689Z" fill="#9C9CA1"/>
<path id="Vector_57" d="M16.8493 13.0442C16.8493 12.8313 16.8461 12.6167 16.8461 12.4037C17.0146 12.2972 17.1989 11.9158 17.3801 12.2972C17.5947 12.7518 17.2434 12.9441 16.8509 13.0442H16.8493Z" fill="#D4CCC6"/>
<path id="Vector_58" d="M12.5436 34.1865C11.9634 34.1817 11.3833 34.1785 10.8016 34.1738C11.3833 33.9258 11.965 33.902 12.5436 34.1865Z" fill="#212324"/>
<path id="Vector_59" d="M11.1624 31.6641H12.3703C12.3703 31.6911 12.3703 31.7166 12.3703 31.7436H11.1401L11.1624 31.6641Z" fill="#242526"/>
<path id="Vector_60" d="M10.4154 33.902C10.2771 33.6779 10.3375 33.5205 10.3709 33.3107C10.5219 33.5189 10.5012 33.6811 10.4154 33.902Z" fill="#222426"/>
<path id="Vector_61" d="M11.4215 25.2763C11.423 25.4877 11.4246 25.7007 11.4262 25.9121C10.4567 25.9121 9.48715 25.9121 8.50331 25.9121C8.4906 25.44 8.71152 25.2477 9.20901 25.2683C9.9449 25.3001 10.684 25.2763 11.4199 25.2763H11.4215Z" fill="#1B8874"/>
<path id="Vector_62" d="M14.6225 25.1348C14.7401 25.3081 14.9229 25.2699 15.0898 25.2763C14.8864 25.5179 14.6003 25.4575 14.3587 25.4257C13.653 25.3303 13.1491 25.5624 12.8646 26.2299C11.946 26.6893 12.2956 27.5428 12.2305 28.2676L12.1605 28.293L12.0858 28.2819C11.725 27.2265 11.6774 26.1743 12.1128 25.1269C12.9489 25.1301 13.7849 25.1317 14.6209 25.1348H14.6225Z" fill="#1B8874"/>
<path id="Vector_63" d="M12.1049 24.3131C12.1017 24.3687 12.1001 24.4244 12.097 24.4784L12.0286 24.4879C11.946 24.7057 11.8172 24.7979 11.5979 24.6437L11.5836 24.6278C11.5868 24.5738 11.5788 24.5229 11.5566 24.4752C11.5597 23.3309 11.5629 22.1865 11.5645 21.0421C11.6932 20.9706 11.8204 20.9754 11.946 21.0517C12.2543 22.1261 11.973 23.2291 12.1033 24.3131H12.1049Z" fill="#170E0C"/>
<path id="Vector_64" d="M12.7089 24.3211C12.5499 24.3163 12.391 24.3099 12.2321 24.3052C12.2321 23.8029 12.2273 23.3023 12.2321 22.8016C12.2416 21.7669 12.8551 21.1502 13.8739 21.1486C14.1648 21.1486 14.454 21.1407 14.7449 21.155C15.0024 21.1661 15.2662 21.2583 15.174 21.5714C14.977 22.2389 15.147 22.9256 14.977 23.6074C14.8562 24.0954 14.6638 24.1637 14.2426 24.1796C13.7309 24.1987 13.1921 24.0111 12.7073 24.3226L12.7089 24.3211Z" fill="#1B8874"/>
<path id="Vector_65" d="M12.1144 25.1269C12.1049 26.1791 12.097 27.2313 12.0874 28.2819C11.9205 28.374 11.7552 28.3868 11.5899 28.2803C11.582 27.1836 11.5725 26.0869 11.5645 24.9902L11.6042 24.9552C11.9396 24.995 11.8236 25.262 11.8268 25.4416C11.8442 26.195 11.822 26.9499 11.8426 27.7033C11.8299 26.8577 11.8315 26.0138 11.8458 25.1682C11.849 25.0125 11.9269 24.9298 12.0954 24.9727C12.0906 25.0252 12.097 25.076 12.1144 25.1253V25.1269Z" fill="#140A0B"/>
<path id="Vector_66" d="M7.77219 13.3335C7.66887 13.3415 7.56715 13.351 7.46384 13.3589C6.97589 13.0156 6.90437 12.4323 6.65325 11.9523C6.61351 11.8935 6.57378 11.8347 6.53404 11.7743C6.58172 11.5121 6.6294 11.2498 6.67709 10.9875C7.02358 10.7507 7.43364 10.8747 7.80556 10.7889C8.18861 10.8922 8.13139 11.2244 8.15523 11.4962C8.19497 11.9682 8.14252 12.4434 8.18066 12.9171C8.21563 13.2223 7.98358 13.2683 7.77377 13.3335H7.77219Z" fill="#EFF0F1"/>
<path id="Vector_67" d="M8.07735 13.0808C7.8755 12.5452 7.95497 11.9857 7.94066 11.4342C7.93589 11.2132 8.08371 10.9542 7.80556 10.7873C7.85325 10.746 7.90093 10.703 7.94861 10.6617C8.36821 10.3423 8.5494 9.78437 9.05166 9.54596L9.05642 9.54914C9.10728 9.60477 9.14702 9.66675 9.17881 9.7351C9.25828 10.1817 9.05325 10.5457 8.83868 10.9065C8.62252 11.2705 8.48901 11.6233 8.94517 11.9189C9.08185 12.0079 9.19947 12.1478 9.18834 12.302C9.14702 12.8599 9.50781 12.6898 9.79709 12.6612C9.86543 12.7009 9.90517 12.7597 9.91947 12.8376C9.90517 13.1142 9.81298 13.3589 9.61589 13.5608C9.43947 13.7054 9.25033 13.831 9.06119 13.9613C8.4445 14.1743 8.33801 13.7007 8.17589 13.3033C8.16159 13.084 8.21404 12.8567 8.19338 12.7645C8.21404 12.7995 8.21563 12.9457 8.07894 13.0792L8.07735 13.0808Z" fill="#F3705B"/>
<path id="Vector_68" d="M5.88238 10.1913C5.75841 10.1595 5.62172 10.1499 5.5645 10.0053C5.9253 10.018 6.28768 10.0323 6.64848 10.045C6.60874 10.4328 6.35921 10.2119 6.18278 10.204C6.08265 10.1992 5.98252 10.1944 5.88238 10.1897V10.1913Z" fill="#EFEEEA"/>
<path id="Vector_69" d="M6.18278 10.204C6.3306 10.1277 6.54834 10.258 6.64848 10.045C6.79947 10.0387 7.0204 10.0291 6.79788 10.2437C6.62146 10.4138 6.37987 10.3661 6.18437 10.204H6.18278Z" fill="#80837D"/>
<path id="Vector_70" d="M16.6824 11.9396C16.3136 12.3989 16.3756 13.1507 15.6906 13.3939C15.306 13.4257 14.9897 13.2461 14.6718 13.0665C14.5049 12.906 14.4381 12.7025 14.4111 12.4816C14.3746 12.0254 14.3873 11.574 14.5796 11.1465C14.5669 10.9272 14.6432 10.7809 14.8879 10.7746C15.4331 10.8779 16.0148 10.7269 16.533 11.013C16.8493 11.1815 16.9526 11.431 16.8207 11.7695C16.7746 11.8268 16.7285 11.884 16.6824 11.9412V11.9396Z" fill="#EEEEEF"/>
<path id="Vector_71" d="M16.8207 11.7679C16.7253 11.5152 16.6283 11.2641 16.533 11.0114C16.7857 10.9176 17.0638 11.1163 17.3086 10.943C17.4834 10.8254 17.3054 10.6077 17.4421 10.4789C17.5073 10.4376 17.5677 10.4424 17.6265 10.4932C17.8999 10.6983 18.0159 10.2374 18.2654 10.3438C18.5944 10.9144 17.9444 11.2625 17.9428 11.7584C17.5693 11.7616 17.1942 11.7648 16.8207 11.7679Z" fill="#F1C1A7"/>
<path id="Vector_72" d="M17.6265 10.4932C17.5931 10.506 17.5566 10.5171 17.5216 10.5234C17.1878 10.6156 16.854 10.6236 16.525 10.5044C16.3995 10.4281 16.4424 10.3756 16.5489 10.3311C16.6792 10.2072 16.8413 10.1865 17.0098 10.1897C17.1783 10.1897 17.342 10.2008 17.4755 10.3232C17.5264 10.3804 17.5772 10.4376 17.6281 10.4932H17.6265Z" fill="#1E1414"/>
<path id="Vector_73" d="M16.5234 10.5028C16.8556 10.5091 17.1878 10.5155 17.52 10.5219C17.5025 10.6887 17.5009 10.8636 17.307 10.9415C17.2403 10.4472 16.684 10.827 16.5219 10.5012L16.5234 10.5028Z" fill="#352B28"/>
<path id="Vector_74" d="M17.0066 10.3136C16.854 10.32 16.6999 10.3248 16.5473 10.3311C16.5425 10.231 16.5377 10.1309 16.533 10.0307C16.6379 10.0355 16.7444 10.0419 16.8493 10.0466C16.9542 10.1054 17.0384 10.1754 17.0066 10.3136Z" fill="#A9A6A7"/>
<path id="Vector_75" d="M12.0938 24.9743C11.7044 25.4972 11.9857 26.0917 11.9205 26.6495C11.876 27.0342 11.9126 27.4283 11.8633 27.8162C11.5931 26.8736 11.9698 25.885 11.6026 24.9552C11.6026 24.8519 11.5995 24.747 11.5995 24.6437C11.7425 24.5913 11.8872 24.5404 12.0302 24.4879C12.0572 24.5309 12.0747 24.577 12.0811 24.6262C12.1685 24.7423 12.1685 24.8615 12.089 24.9807L12.0954 24.9727L12.0938 24.9743Z" fill="#151121"/>
<path id="Vector_76" d="M9.21218 9.54755C10.2262 9.25987 11.2546 9.34093 12.2829 9.42834C12.7661 9.46967 12.6453 10.2151 13.1825 10.1817C13.3303 9.94808 13.6053 9.97033 13.8183 9.86384C13.8675 9.86384 13.9184 9.86861 13.9677 9.87497C14.063 10.2532 14.2379 10.6172 14.044 11.0257C13.9454 11.2323 14.1187 11.3626 14.2935 11.4517C14.3857 11.5454 14.4016 11.6583 14.3777 11.7823C14.2999 11.9714 14.2045 12.1446 13.9581 12.1303C13.4718 11.8967 13.0077 11.9523 12.5611 12.2416C11.9873 12.3306 11.4151 12.3974 10.8556 12.1764C10.7809 12.124 10.7396 12.0525 10.7285 11.9619C10.9446 11.5375 11.2879 11.1846 11.2339 10.6268C11.1894 10.1563 11.0177 9.92901 10.56 9.82729C10.1118 9.72715 9.60636 9.89722 9.21218 9.54755Z" fill="#F3705B"/>
<path id="Vector_77" d="M14.5812 11.1449C14.5828 11.617 14.586 12.089 14.5875 12.5595C14.4175 12.5738 14.3603 12.4546 14.311 12.3258C14.2808 11.973 14.3587 11.6328 14.4509 11.2959C14.4938 11.245 14.5383 11.1942 14.5812 11.1449Z" fill="#132F4E"/>
<path id="Vector_78" d="M14.4509 11.2975C14.4509 11.6662 14.4509 12.0366 14.4509 12.4053C14.0265 12.2861 14.2172 12.0159 14.2967 11.7743C14.2967 11.6678 14.2967 11.5613 14.2967 11.4564C14.3491 11.404 14.4 11.3515 14.4525 11.2991L14.4509 11.2975Z" fill="#F3705B"/>
<path id="Vector_79" d="M12.0874 24.9823C12.0842 24.8646 12.0826 24.7454 12.0795 24.6278C13.1332 24.6326 14.1886 24.6278 15.2424 24.6485C15.4713 24.6532 15.805 24.5054 15.8638 24.925C14.605 24.9441 13.3462 24.9632 12.0874 24.9838V24.9823Z" fill="#10090D"/>
<path id="Vector_80" d="M17.0066 10.3136C16.9542 10.2246 16.9017 10.1356 16.8493 10.0466C16.9494 10.0307 17.0511 10.0164 17.1513 10.0005C17.3038 9.99576 17.4548 9.99258 17.6074 9.98781C18.1446 10.3343 17.2991 10.1229 17.4723 10.3216C17.3166 10.3184 17.1608 10.3168 17.005 10.3136H17.0066Z" fill="#FBF5F6"/>
<path id="Vector_81" d="M13.8199 9.86543C13.6577 10.0721 13.4368 10.1563 13.1841 10.1833C13.0983 9.93695 12.8217 9.64291 13.3415 9.54755C13.324 9.91788 13.6927 9.71126 13.8183 9.86543H13.8199Z" fill="#F3705B"/>
<path id="Vector_82" d="M14.8053 13.014C15.1756 12.9664 15.4363 13.173 15.6922 13.3923C15.6922 13.6419 15.6922 13.893 15.6906 14.1425C15.5968 14.2522 15.5015 14.3619 15.4077 14.4715C15.0755 14.5764 14.7767 14.8657 14.3873 14.6543C14.0233 14.1314 13.5481 13.734 13.0077 13.4082C12.9521 13.3351 12.9489 13.2588 12.995 13.1809C13.2906 12.9393 13.6132 13.0935 13.9264 13.1158C14.2204 13.0967 14.4906 12.8583 14.8069 13.014H14.8053Z" fill="#131A2A"/>
<path id="Vector_83" d="M13.0252 13.2016C13.0188 13.2699 13.0124 13.3399 13.0077 13.4082C11.8411 13.0268 10.7507 13.1412 9.7494 13.8882C9.65404 13.9597 9.51258 13.9661 9.39179 14.0026C9.33457 14.0519 9.26781 14.0773 9.19152 14.0758C9.07868 14.036 8.99603 13.9772 9.03735 13.8373C9.13589 13.6371 9.28371 13.5083 9.51894 13.5115C9.84636 13.413 9.70967 13.076 9.84477 12.8773C9.84477 12.8265 9.84795 12.7756 9.84795 12.7232C9.91311 12.5372 10.0577 12.4498 10.2358 12.4005C10.4964 12.3465 10.7587 12.3401 11.0162 12.4164C11.1417 12.453 11.2959 12.5181 11.2721 12.666C11.2419 12.8567 11.1195 12.9902 10.9589 12.9234C11.6185 12.8789 12.3974 12.5166 13.0252 13.2V13.2016Z" fill="#131D2E"/>
<path id="Vector_84" d="M14.3857 14.6559C14.6257 14.5955 14.934 14.7513 15.0723 14.3619C15.1232 14.2172 15.3823 14.1536 15.4061 14.4731C15.2281 14.9038 14.7513 14.7211 14.4668 14.934C14.4397 14.8419 14.4127 14.7497 14.3873 14.6559H14.3857Z" fill="#0A0D12"/>
<path id="Vector_85" d="M9.2249 13.9979C9.28053 14.0011 9.33457 14.0026 9.3902 14.0058C9.31709 14.3634 9.14702 14.6273 8.75285 14.6781C8.74808 14.6114 8.74172 14.5446 8.73695 14.4795C8.77987 14.1966 9.00397 14.0996 9.2249 13.9995V13.9979Z" fill="#0B1725"/>
<path id="Vector_86" d="M9.2249 13.9979C9.06278 14.1584 8.89907 14.3189 8.73695 14.4779C8.63046 14.4238 8.52238 14.3682 8.41589 14.3142C8.22199 14.1489 8.16 13.9327 8.18384 13.6864C8.18702 13.5719 8.16795 13.4527 8.26172 13.3605C8.53351 13.4988 8.52556 14.0917 9.03735 13.8405C9.09934 13.893 9.16291 13.9454 9.2249 13.9995V13.9979Z" fill="#F3705B"/>
<path id="Vector_87" d="M8.26172 13.3589C8.25854 13.4686 8.25695 13.5767 8.25377 13.6864C8.19974 13.7515 8.15046 13.7468 8.10596 13.6752C8.10596 13.4543 7.9502 13.3812 7.77219 13.3335C7.87391 13.2493 7.97563 13.165 8.07735 13.0808C8.10119 12.9091 8.12503 12.7391 8.15682 12.5023C8.33325 12.8217 8.22358 13.0983 8.26013 13.3589H8.26172Z" fill="#F3705B"/>
<path id="Vector_88" d="M8.10437 13.6752C8.15364 13.6752 8.20291 13.68 8.25219 13.6864C8.30623 13.8962 8.36026 14.1044 8.4143 14.3142C7.89775 14.303 8.0551 13.9629 8.10278 13.6752H8.10437Z" fill="#122235"/>
<path id="Vector_89" d="M9.21218 9.54755C9.44742 9.54755 9.68265 9.54596 9.91788 9.54755C11.3372 9.56185 11.6344 9.95444 11.4517 11.3785C11.3913 11.8538 10.9526 11.6774 10.8 11.9301C9.94967 12.2956 9.58728 12.1303 9.36159 11.2975C9.22013 10.773 9.28371 10.2119 9.05324 9.70649C9.05324 9.65404 9.05324 9.60159 9.05324 9.54914C9.10569 9.54914 9.15815 9.54914 9.2106 9.54755H9.21218Z" fill="#F3705B"/>
<path id="Vector_90" d="M9.05483 9.70649C9.46649 9.96715 9.41722 10.4265 9.4951 10.8111C9.72079 11.9269 9.7049 11.9301 10.8 11.9301C10.8 11.9809 10.8 12.0318 10.8 12.0826C10.7174 12.4291 10.3581 12.3926 10.142 12.5563C10.0434 12.6119 9.9449 12.6691 9.84636 12.7248C9.75258 12.7645 9.63497 12.782 9.57139 12.8503C9.43311 13.0013 9.33457 13.2604 9.08821 13.1523C8.86411 13.0522 9.08344 12.8297 9.05642 12.6612C9.01033 12.3703 9.08821 12.1367 8.62728 11.9857C8.19815 11.8458 8.33007 11.2577 8.58437 10.9208C8.86728 10.5473 9.02464 10.1595 9.05324 9.7049L9.05483 9.70649Z" fill="#F3705B"/>
<path id="Vector_91" d="M9.84477 12.8789C9.81616 13.1317 9.96556 13.475 9.51894 13.5131C9.62702 13.3017 9.73669 13.0903 9.84477 12.8789Z" fill="#0A283E"/>
<path id="Vector_92" d="M14.8053 13.014C14.5303 13.1301 14.2554 13.2445 13.9804 13.3605C13.8405 13.2699 13.7197 13.1634 13.68 12.9902C13.6482 12.6469 13.7102 12.3338 13.9788 12.089C14.0837 11.9825 14.1902 11.8776 14.2951 11.7711C14.3205 11.9889 14.222 12.2352 14.4493 12.4021C14.4954 12.4546 14.5415 12.5054 14.5875 12.5579C14.6066 12.7343 14.6003 12.9234 14.8053 13.0125V13.014Z" fill="#F3705B"/>
<path id="Vector_93" d="M13.8215 13.0379C13.8739 13.146 13.9279 13.2524 13.9804 13.3605C13.6609 13.3113 13.3621 13.1444 13.0252 13.2016C12.3195 12.9234 11.5804 13.0522 10.8524 13.0236C10.7682 12.7518 11.2005 12.9648 11.0575 12.5881C10.8397 12.4768 10.4758 12.6135 10.1436 12.5563C10.2866 12.2925 10.5743 12.2289 10.8016 12.0811C11.4374 12.0842 12.0715 12.0874 12.7073 12.0906C13.4575 11.9603 13.7134 12.4117 13.8215 13.0363V13.0379Z" fill="#0E192F"/>
<path id="Vector_94" d="M13.8215 13.0379C13.6403 12.4975 13.2064 12.2559 12.7073 12.0922C13.1301 11.5756 13.5544 11.5788 13.9788 12.0906C13.9264 12.4069 13.8739 12.7232 13.8215 13.0379Z" fill="#F3705B"/>
<path id="Vector_95" d="M13.9089 10.5711C13.6498 10.7015 13.5274 11.0638 13.2191 10.7666C13.1237 10.676 13.0077 10.5282 13.1158 10.436C13.3574 10.2326 13.5989 10.3852 13.9105 10.5711H13.9089Z" fill="#F3705B"/>
</g>
<defs>
<clipPath id="clip0_3027_82138">
<rect width="24" height="38.7815" fill="white"/>
</clipPath>
</defs>
</svg>
