<svg width="312" height="312" viewBox="0 0 312 312" fill="none" xmlns="http://www.w3.org/2000/svg">
<g clip-path="url(#clip0_331_25293)">
<rect width="253.1" height="253.1" transform="translate(58 57.5)" fill="white"/>
<path d="M69.0272 58.0333H58.5251V68.5354H69.0272V58.0333Z" stroke="#F2E4E4" stroke-width="1.05021" stroke-miterlimit="10"/>
<path d="M79.5292 58.0334H69.0271V68.5355H79.5292V58.0334Z" stroke="#F2E4E4" stroke-width="1.05021" stroke-miterlimit="10"/>
<path d="M90.0314 58.0334H79.5293V68.5355H90.0314V58.0334Z" stroke="#F2E4E4" stroke-width="1.05021" stroke-miterlimit="10"/>
<path d="M100.533 58.0334H90.0312V68.5355H100.533V58.0334Z" stroke="#F2E4E4" stroke-width="1.05021" stroke-miterlimit="10"/>
<path d="M111.036 58.0334H100.533V68.5355H111.036V58.0334Z" stroke="#F2E4E4" stroke-width="1.05021" stroke-miterlimit="10"/>
<path d="M121.537 58.0334H111.035V68.5355H121.537V58.0334Z" stroke="#F2E4E4" stroke-width="1.05021" stroke-miterlimit="10"/>
<path d="M132.04 58.0334H121.538V68.5355H132.04V58.0334Z" stroke="#F2E4E4" stroke-width="1.05021" stroke-miterlimit="10"/>
<path d="M142.542 58.0334H132.04V68.5355H142.542V58.0334Z" stroke="#F2E4E4" stroke-width="1.05021" stroke-miterlimit="10"/>
<path d="M153.044 58.0334H142.542V68.5355H153.044V58.0334Z" stroke="#F2E4E4" stroke-width="1.05021" stroke-miterlimit="10"/>
<path d="M163.546 58.0334H153.044V68.5355H163.546V58.0334Z" stroke="#F2E4E4" stroke-width="1.05021" stroke-miterlimit="10"/>
<path d="M174.048 58.0334H163.546V68.5355H174.048V58.0334Z" stroke="#F2E4E4" stroke-width="1.05021" stroke-miterlimit="10"/>
<path d="M184.55 58.0334H174.048V68.5355H184.55V58.0334Z" stroke="#F2E4E4" stroke-width="1.05021" stroke-miterlimit="10"/>
<path d="M195.052 58.0334H184.55V68.5355H195.052V58.0334Z" stroke="#F2E4E4" stroke-width="1.05021" stroke-miterlimit="10"/>
<path d="M205.554 58.0334H195.052V68.5355H205.554V58.0334Z" stroke="#F2E4E4" stroke-width="1.05021" stroke-miterlimit="10"/>
<path d="M216.056 58.0334H205.554V68.5355H216.056V58.0334Z" stroke="#F2E4E4" stroke-width="1.05021" stroke-miterlimit="10"/>
<path d="M226.558 58.0334H216.056V68.5355H226.558V58.0334Z" stroke="#F2E4E4" stroke-width="1.05021" stroke-miterlimit="10"/>
<path d="M237.06 58.0334H226.558V68.5355H237.06V58.0334Z" stroke="#F2E4E4" stroke-width="1.05021" stroke-miterlimit="10"/>
<path d="M247.562 58.0334H237.06V68.5355H247.562V58.0334Z" stroke="#F2E4E4" stroke-width="1.05021" stroke-miterlimit="10"/>
<path d="M258.065 58.0334H247.562V68.5355H258.065V58.0334Z" stroke="#F2E4E4" stroke-width="1.05021" stroke-miterlimit="10"/>
<path d="M268.567 58.0334H258.064V68.5355H268.567V58.0334Z" stroke="#F2E4E4" stroke-width="1.05021" stroke-miterlimit="10"/>
<path d="M279.069 58.0334H268.567V68.5355H279.069V58.0334Z" stroke="#F2E4E4" stroke-width="1.05021" stroke-miterlimit="10"/>
<path d="M289.571 58.0334H279.069V68.5355H289.571V58.0334Z" stroke="#F2E4E4" stroke-width="1.05021" stroke-miterlimit="10"/>
<path d="M300.073 58.0334H289.571V68.5355H300.073V58.0334Z" stroke="#F2E4E4" stroke-width="1.05021" stroke-miterlimit="10"/>
<path d="M310.575 58.0334H300.073V68.5355H310.575V58.0334Z" stroke="#F2E4E4" stroke-width="1.05021" stroke-miterlimit="10"/>
<path d="M69.0272 68.5354H58.5251V79.0375H69.0272V68.5354Z" stroke="#F2E4E4" stroke-width="1.05021" stroke-miterlimit="10"/>
<path d="M79.5292 68.5356H69.0271V79.0377H79.5292V68.5356Z" stroke="#F2E4E4" stroke-width="1.05021" stroke-miterlimit="10"/>
<path d="M90.0314 68.5356H79.5293V79.0377H90.0314V68.5356Z" stroke="#F2E4E4" stroke-width="1.05021" stroke-miterlimit="10"/>
<path d="M100.533 68.5356H90.0312V79.0377H100.533V68.5356Z" stroke="#F2E4E4" stroke-width="1.05021" stroke-miterlimit="10"/>
<path d="M111.036 68.5356H100.533V79.0377H111.036V68.5356Z" stroke="#F2E4E4" stroke-width="1.05021" stroke-miterlimit="10"/>
<path d="M121.537 68.5356H111.035V79.0377H121.537V68.5356Z" stroke="#F2E4E4" stroke-width="1.05021" stroke-miterlimit="10"/>
<path d="M132.04 68.5356H121.538V79.0377H132.04V68.5356Z" stroke="#F2E4E4" stroke-width="1.05021" stroke-miterlimit="10"/>
<path d="M142.542 68.5356H132.04V79.0377H142.542V68.5356Z" stroke="#F2E4E4" stroke-width="1.05021" stroke-miterlimit="10"/>
<path d="M153.044 68.5356H142.542V79.0377H153.044V68.5356Z" stroke="#F2E4E4" stroke-width="1.05021" stroke-miterlimit="10"/>
<path d="M163.546 68.5356H153.044V79.0377H163.546V68.5356Z" stroke="#F2E4E4" stroke-width="1.05021" stroke-miterlimit="10"/>
<path d="M174.048 68.5356H163.546V79.0377H174.048V68.5356Z" stroke="#F2E4E4" stroke-width="1.05021" stroke-miterlimit="10"/>
<path d="M184.55 68.5356H174.048V79.0377H184.55V68.5356Z" stroke="#F2E4E4" stroke-width="1.05021" stroke-miterlimit="10"/>
<path d="M195.052 68.5356H184.55V79.0377H195.052V68.5356Z" stroke="#F2E4E4" stroke-width="1.05021" stroke-miterlimit="10"/>
<path d="M205.554 68.5356H195.052V79.0377H205.554V68.5356Z" stroke="#F2E4E4" stroke-width="1.05021" stroke-miterlimit="10"/>
<path d="M216.056 68.5356H205.554V79.0377H216.056V68.5356Z" stroke="#F2E4E4" stroke-width="1.05021" stroke-miterlimit="10"/>
<path d="M226.558 68.5356H216.056V79.0377H226.558V68.5356Z" stroke="#F2E4E4" stroke-width="1.05021" stroke-miterlimit="10"/>
<path d="M237.06 68.5356H226.558V79.0377H237.06V68.5356Z" stroke="#F2E4E4" stroke-width="1.05021" stroke-miterlimit="10"/>
<path d="M247.562 68.5356H237.06V79.0377H247.562V68.5356Z" stroke="#F2E4E4" stroke-width="1.05021" stroke-miterlimit="10"/>
<path d="M258.065 68.5356H247.562V79.0377H258.065V68.5356Z" stroke="#F2E4E4" stroke-width="1.05021" stroke-miterlimit="10"/>
<path d="M268.567 68.5356H258.064V79.0377H268.567V68.5356Z" stroke="#F2E4E4" stroke-width="1.05021" stroke-miterlimit="10"/>
<path d="M279.069 68.5356H268.567V79.0377H279.069V68.5356Z" stroke="#F2E4E4" stroke-width="1.05021" stroke-miterlimit="10"/>
<path d="M289.571 68.5356H279.069V79.0377H289.571V68.5356Z" stroke="#F2E4E4" stroke-width="1.05021" stroke-miterlimit="10"/>
<path d="M300.073 68.5356H289.571V79.0377H300.073V68.5356Z" stroke="#F2E4E4" stroke-width="1.05021" stroke-miterlimit="10"/>
<path d="M310.575 68.5356H300.073V79.0377H310.575V68.5356Z" stroke="#F2E4E4" stroke-width="1.05021" stroke-miterlimit="10"/>
<path d="M69.0272 79.0371H58.5251V89.5392H69.0272V79.0371Z" stroke="#F2E4E4" stroke-width="1.05021" stroke-miterlimit="10"/>
<path d="M79.5292 79.0371H69.0271V89.5392H79.5292V79.0371Z" stroke="#F2E4E4" stroke-width="1.05021" stroke-miterlimit="10"/>
<path d="M90.0314 79.0371H79.5293V89.5392H90.0314V79.0371Z" stroke="#F2E4E4" stroke-width="1.05021" stroke-miterlimit="10"/>
<path d="M100.533 79.0371H90.0312V89.5392H100.533V79.0371Z" stroke="#F2E4E4" stroke-width="1.05021" stroke-miterlimit="10"/>
<path d="M111.036 79.0371H100.533V89.5392H111.036V79.0371Z" stroke="#F2E4E4" stroke-width="1.05021" stroke-miterlimit="10"/>
<path d="M121.537 79.0371H111.035V89.5392H121.537V79.0371Z" stroke="#F2E4E4" stroke-width="1.05021" stroke-miterlimit="10"/>
<path d="M132.04 79.0371H121.538V89.5392H132.04V79.0371Z" stroke="#F2E4E4" stroke-width="1.05021" stroke-miterlimit="10"/>
<path d="M142.542 79.0371H132.04V89.5392H142.542V79.0371Z" stroke="#F2E4E4" stroke-width="1.05021" stroke-miterlimit="10"/>
<path d="M153.044 79.0371H142.542V89.5392H153.044V79.0371Z" stroke="#F2E4E4" stroke-width="1.05021" stroke-miterlimit="10"/>
<path d="M163.546 79.0371H153.044V89.5392H163.546V79.0371Z" stroke="#F2E4E4" stroke-width="1.05021" stroke-miterlimit="10"/>
<path d="M174.048 79.0371H163.546V89.5392H174.048V79.0371Z" stroke="#F2E4E4" stroke-width="1.05021" stroke-miterlimit="10"/>
<path d="M184.55 79.0371H174.048V89.5392H184.55V79.0371Z" stroke="#F2E4E4" stroke-width="1.05021" stroke-miterlimit="10"/>
<path d="M195.052 79.0371H184.55V89.5392H195.052V79.0371Z" stroke="#F2E4E4" stroke-width="1.05021" stroke-miterlimit="10"/>
<path d="M205.554 79.0371H195.052V89.5392H205.554V79.0371Z" stroke="#F2E4E4" stroke-width="1.05021" stroke-miterlimit="10"/>
<path d="M216.056 79.0371H205.554V89.5392H216.056V79.0371Z" stroke="#F2E4E4" stroke-width="1.05021" stroke-miterlimit="10"/>
<path d="M226.558 79.0371H216.056V89.5392H226.558V79.0371Z" stroke="#F2E4E4" stroke-width="1.05021" stroke-miterlimit="10"/>
<path d="M237.06 79.0371H226.558V89.5392H237.06V79.0371Z" stroke="#F2E4E4" stroke-width="1.05021" stroke-miterlimit="10"/>
<path d="M247.563 79.0371H237.061V89.5392H247.563V79.0371Z" stroke="#F2E4E4" stroke-width="1.05021" stroke-miterlimit="10"/>
<path d="M258.065 79.0371H247.562V89.5392H258.065V79.0371Z" stroke="#F2E4E4" stroke-width="1.05021" stroke-miterlimit="10"/>
<path d="M268.567 79.0371H258.064V89.5392H268.567V79.0371Z" stroke="#F2E4E4" stroke-width="1.05021" stroke-miterlimit="10"/>
<path d="M279.069 79.0371H268.567V89.5392H279.069V79.0371Z" stroke="#F2E4E4" stroke-width="1.05021" stroke-miterlimit="10"/>
<path d="M289.571 79.0371H279.069V89.5392H289.571V79.0371Z" stroke="#F2E4E4" stroke-width="1.05021" stroke-miterlimit="10"/>
<path d="M300.073 79.0371H289.571V89.5392H300.073V79.0371Z" stroke="#F2E4E4" stroke-width="1.05021" stroke-miterlimit="10"/>
<path d="M310.575 79.0371H300.073V89.5392H310.575V79.0371Z" stroke="#F2E4E4" stroke-width="1.05021" stroke-miterlimit="10"/>
<path d="M69.0272 89.5391H58.5251V100.041H69.0272V89.5391Z" stroke="#F2E4E4" stroke-width="1.05021" stroke-miterlimit="10"/>
<path d="M79.5292 89.5391H69.0271V100.041H79.5292V89.5391Z" stroke="#F2E4E4" stroke-width="1.05021" stroke-miterlimit="10"/>
<path d="M90.0314 89.5391H79.5293V100.041H90.0314V89.5391Z" stroke="#F2E4E4" stroke-width="1.05021" stroke-miterlimit="10"/>
<path d="M100.533 89.5391H90.0312V100.041H100.533V89.5391Z" stroke="#F2E4E4" stroke-width="1.05021" stroke-miterlimit="10"/>
<path d="M111.036 89.5391H100.533V100.041H111.036V89.5391Z" stroke="#F2E4E4" stroke-width="1.05021" stroke-miterlimit="10"/>
<path d="M121.537 89.5391H111.035V100.041H121.537V89.5391Z" stroke="#F2E4E4" stroke-width="1.05021" stroke-miterlimit="10"/>
<path d="M132.04 89.5391H121.538V100.041H132.04V89.5391Z" stroke="#F2E4E4" stroke-width="1.05021" stroke-miterlimit="10"/>
<path d="M142.542 89.5391H132.04V100.041H142.542V89.5391Z" stroke="#F2E4E4" stroke-width="1.05021" stroke-miterlimit="10"/>
<path d="M153.044 89.5391H142.542V100.041H153.044V89.5391Z" stroke="#F2E4E4" stroke-width="1.05021" stroke-miterlimit="10"/>
<path d="M163.546 89.5391H153.044V100.041H163.546V89.5391Z" stroke="#F2E4E4" stroke-width="1.05021" stroke-miterlimit="10"/>
<path d="M174.048 89.5391H163.546V100.041H174.048V89.5391Z" stroke="#F2E4E4" stroke-width="1.05021" stroke-miterlimit="10"/>
<path d="M184.55 89.5391H174.048V100.041H184.55V89.5391Z" stroke="#F2E4E4" stroke-width="1.05021" stroke-miterlimit="10"/>
<path d="M195.052 89.5391H184.55V100.041H195.052V89.5391Z" stroke="#F2E4E4" stroke-width="1.05021" stroke-miterlimit="10"/>
<path d="M205.554 89.5391H195.052V100.041H205.554V89.5391Z" stroke="#F2E4E4" stroke-width="1.05021" stroke-miterlimit="10"/>
<path d="M216.056 89.5391H205.554V100.041H216.056V89.5391Z" stroke="#F2E4E4" stroke-width="1.05021" stroke-miterlimit="10"/>
<path d="M226.558 89.5391H216.056V100.041H226.558V89.5391Z" stroke="#F2E4E4" stroke-width="1.05021" stroke-miterlimit="10"/>
<path d="M237.06 89.5391H226.558V100.041H237.06V89.5391Z" stroke="#F2E4E4" stroke-width="1.05021" stroke-miterlimit="10"/>
<path d="M247.563 89.5391H237.061V100.041H247.563V89.5391Z" stroke="#F2E4E4" stroke-width="1.05021" stroke-miterlimit="10"/>
<path d="M258.065 89.5391H247.562V100.041H258.065V89.5391Z" stroke="#F2E4E4" stroke-width="1.05021" stroke-miterlimit="10"/>
<path d="M268.567 89.5391H258.064V100.041H268.567V89.5391Z" stroke="#F2E4E4" stroke-width="1.05021" stroke-miterlimit="10"/>
<path d="M279.069 89.5391H268.567V100.041H279.069V89.5391Z" stroke="#F2E4E4" stroke-width="1.05021" stroke-miterlimit="10"/>
<path d="M289.571 89.5391H279.069V100.041H289.571V89.5391Z" stroke="#F2E4E4" stroke-width="1.05021" stroke-miterlimit="10"/>
<path d="M300.073 89.5391H289.571V100.041H300.073V89.5391Z" stroke="#F2E4E4" stroke-width="1.05021" stroke-miterlimit="10"/>
<path d="M310.575 89.5391H300.073V100.041H310.575V89.5391Z" stroke="#F2E4E4" stroke-width="1.05021" stroke-miterlimit="10"/>
<path d="M69.0272 100.043H58.5251V110.545H69.0272V100.043Z" stroke="#F2E4E4" stroke-width="1.05021" stroke-miterlimit="10"/>
<path d="M79.5292 100.043H69.0271V110.545H79.5292V100.043Z" stroke="#F2E4E4" stroke-width="1.05021" stroke-miterlimit="10"/>
<path d="M90.0314 100.043H79.5293V110.545H90.0314V100.043Z" stroke="#F2E4E4" stroke-width="1.05021" stroke-miterlimit="10"/>
<path d="M100.533 100.043H90.0312V110.545H100.533V100.043Z" stroke="#F2E4E4" stroke-width="1.05021" stroke-miterlimit="10"/>
<path d="M111.036 100.043H100.533V110.545H111.036V100.043Z" stroke="#F2E4E4" stroke-width="1.05021" stroke-miterlimit="10"/>
<path d="M121.537 100.043H111.035V110.545H121.537V100.043Z" stroke="#F2E4E4" stroke-width="1.05021" stroke-miterlimit="10"/>
<path d="M132.04 100.043H121.538V110.545H132.04V100.043Z" stroke="#F2E4E4" stroke-width="1.05021" stroke-miterlimit="10"/>
<path d="M142.542 100.043H132.04V110.545H142.542V100.043Z" stroke="#F2E4E4" stroke-width="1.05021" stroke-miterlimit="10"/>
<path d="M153.044 100.043H142.542V110.545H153.044V100.043Z" stroke="#F2E4E4" stroke-width="1.05021" stroke-miterlimit="10"/>
<path d="M163.546 100.043H153.044V110.545H163.546V100.043Z" stroke="#F2E4E4" stroke-width="1.05021" stroke-miterlimit="10"/>
<path d="M174.048 100.043H163.546V110.545H174.048V100.043Z" stroke="#F2E4E4" stroke-width="1.05021" stroke-miterlimit="10"/>
<path d="M184.55 100.043H174.048V110.545H184.55V100.043Z" stroke="#F2E4E4" stroke-width="1.05021" stroke-miterlimit="10"/>
<path d="M195.052 100.043H184.55V110.545H195.052V100.043Z" stroke="#F2E4E4" stroke-width="1.05021" stroke-miterlimit="10"/>
<path d="M205.554 100.043H195.052V110.545H205.554V100.043Z" stroke="#F2E4E4" stroke-width="1.05021" stroke-miterlimit="10"/>
<path d="M216.056 100.043H205.554V110.545H216.056V100.043Z" stroke="#F2E4E4" stroke-width="1.05021" stroke-miterlimit="10"/>
<path d="M226.558 100.043H216.056V110.545H226.558V100.043Z" stroke="#F2E4E4" stroke-width="1.05021" stroke-miterlimit="10"/>
<path d="M237.06 100.043H226.558V110.545H237.06V100.043Z" stroke="#F2E4E4" stroke-width="1.05021" stroke-miterlimit="10"/>
<path d="M247.563 100.043H237.061V110.545H247.563V100.043Z" stroke="#F2E4E4" stroke-width="1.05021" stroke-miterlimit="10"/>
<path d="M258.065 100.043H247.562V110.545H258.065V100.043Z" stroke="#F2E4E4" stroke-width="1.05021" stroke-miterlimit="10"/>
<path d="M268.567 100.043H258.064V110.545H268.567V100.043Z" stroke="#F2E4E4" stroke-width="1.05021" stroke-miterlimit="10"/>
<path d="M279.069 100.043H268.567V110.545H279.069V100.043Z" stroke="#F2E4E4" stroke-width="1.05021" stroke-miterlimit="10"/>
<path d="M289.571 100.043H279.069V110.545H289.571V100.043Z" stroke="#F2E4E4" stroke-width="1.05021" stroke-miterlimit="10"/>
<path d="M300.073 100.043H289.571V110.545H300.073V100.043Z" stroke="#F2E4E4" stroke-width="1.05021" stroke-miterlimit="10"/>
<path d="M310.575 100.043H300.073V110.545H310.575V100.043Z" stroke="#F2E4E4" stroke-width="1.05021" stroke-miterlimit="10"/>
<path d="M69.0272 110.545H58.5251V121.047H69.0272V110.545Z" stroke="#F2E4E4" stroke-width="1.05021" stroke-miterlimit="10"/>
<path d="M79.5292 110.545H69.0271V121.047H79.5292V110.545Z" stroke="#F2E4E4" stroke-width="1.05021" stroke-miterlimit="10"/>
<path d="M90.0314 110.545H79.5293V121.047H90.0314V110.545Z" stroke="#F2E4E4" stroke-width="1.05021" stroke-miterlimit="10"/>
<path d="M100.533 110.545H90.0312V121.047H100.533V110.545Z" stroke="#F2E4E4" stroke-width="1.05021" stroke-miterlimit="10"/>
<path d="M111.036 110.545H100.533V121.047H111.036V110.545Z" stroke="#F2E4E4" stroke-width="1.05021" stroke-miterlimit="10"/>
<path d="M121.537 110.545H111.035V121.047H121.537V110.545Z" stroke="#F2E4E4" stroke-width="1.05021" stroke-miterlimit="10"/>
<path d="M132.04 110.545H121.538V121.047H132.04V110.545Z" stroke="#F2E4E4" stroke-width="1.05021" stroke-miterlimit="10"/>
<path d="M142.542 110.545H132.04V121.047H142.542V110.545Z" stroke="#F2E4E4" stroke-width="1.05021" stroke-miterlimit="10"/>
<path d="M153.044 110.545H142.542V121.047H153.044V110.545Z" stroke="#F2E4E4" stroke-width="1.05021" stroke-miterlimit="10"/>
<path d="M163.546 110.545H153.044V121.047H163.546V110.545Z" stroke="#F2E4E4" stroke-width="1.05021" stroke-miterlimit="10"/>
<path d="M174.048 110.545H163.546V121.047H174.048V110.545Z" stroke="#F2E4E4" stroke-width="1.05021" stroke-miterlimit="10"/>
<path d="M184.55 110.545H174.048V121.047H184.55V110.545Z" stroke="#F2E4E4" stroke-width="1.05021" stroke-miterlimit="10"/>
<path d="M195.052 110.545H184.55V121.047H195.052V110.545Z" stroke="#F2E4E4" stroke-width="1.05021" stroke-miterlimit="10"/>
<path d="M205.554 110.545H195.052V121.047H205.554V110.545Z" stroke="#F2E4E4" stroke-width="1.05021" stroke-miterlimit="10"/>
<path d="M216.056 110.545H205.554V121.047H216.056V110.545Z" stroke="#F2E4E4" stroke-width="1.05021" stroke-miterlimit="10"/>
<path d="M226.558 110.545H216.056V121.047H226.558V110.545Z" stroke="#F2E4E4" stroke-width="1.05021" stroke-miterlimit="10"/>
<path d="M237.06 110.545H226.558V121.047H237.06V110.545Z" stroke="#F2E4E4" stroke-width="1.05021" stroke-miterlimit="10"/>
<path d="M247.563 110.545H237.061V121.047H247.563V110.545Z" stroke="#F2E4E4" stroke-width="1.05021" stroke-miterlimit="10"/>
<path d="M258.065 110.545H247.562V121.047H258.065V110.545Z" stroke="#F2E4E4" stroke-width="1.05021" stroke-miterlimit="10"/>
<path d="M268.567 110.545H258.064V121.047H268.567V110.545Z" stroke="#F2E4E4" stroke-width="1.05021" stroke-miterlimit="10"/>
<path d="M279.069 110.545H268.567V121.047H279.069V110.545Z" stroke="#F2E4E4" stroke-width="1.05021" stroke-miterlimit="10"/>
<path d="M289.571 110.545H279.069V121.047H289.571V110.545Z" stroke="#F2E4E4" stroke-width="1.05021" stroke-miterlimit="10"/>
<path d="M300.073 110.545H289.571V121.047H300.073V110.545Z" stroke="#F2E4E4" stroke-width="1.05021" stroke-miterlimit="10"/>
<path d="M310.575 110.545H300.073V121.047H310.575V110.545Z" stroke="#F2E4E4" stroke-width="1.05021" stroke-miterlimit="10"/>
<path d="M69.0272 121.047H58.5251V131.549H69.0272V121.047Z" stroke="#F2E4E4" stroke-width="1.05021" stroke-miterlimit="10"/>
<path d="M79.5292 121.047H69.0271V131.549H79.5292V121.047Z" stroke="#F2E4E4" stroke-width="1.05021" stroke-miterlimit="10"/>
<path d="M90.0314 121.047H79.5293V131.549H90.0314V121.047Z" stroke="#F2E4E4" stroke-width="1.05021" stroke-miterlimit="10"/>
<path d="M100.533 121.047H90.0312V131.549H100.533V121.047Z" stroke="#F2E4E4" stroke-width="1.05021" stroke-miterlimit="10"/>
<path d="M111.036 121.047H100.533V131.549H111.036V121.047Z" stroke="#F2E4E4" stroke-width="1.05021" stroke-miterlimit="10"/>
<path d="M121.537 121.047H111.035V131.549H121.537V121.047Z" stroke="#F2E4E4" stroke-width="1.05021" stroke-miterlimit="10"/>
<path d="M132.04 121.047H121.538V131.549H132.04V121.047Z" stroke="#F2E4E4" stroke-width="1.05021" stroke-miterlimit="10"/>
<path d="M142.542 121.047H132.04V131.549H142.542V121.047Z" stroke="#F2E4E4" stroke-width="1.05021" stroke-miterlimit="10"/>
<path d="M153.044 121.047H142.542V131.549H153.044V121.047Z" stroke="#F2E4E4" stroke-width="1.05021" stroke-miterlimit="10"/>
<path d="M163.546 121.047H153.044V131.549H163.546V121.047Z" stroke="#F2E4E4" stroke-width="1.05021" stroke-miterlimit="10"/>
<path d="M174.048 121.047H163.546V131.549H174.048V121.047Z" stroke="#F2E4E4" stroke-width="1.05021" stroke-miterlimit="10"/>
<path d="M184.55 121.047H174.048V131.549H184.55V121.047Z" stroke="#F2E4E4" stroke-width="1.05021" stroke-miterlimit="10"/>
<path d="M195.052 121.047H184.55V131.549H195.052V121.047Z" stroke="#F2E4E4" stroke-width="1.05021" stroke-miterlimit="10"/>
<path d="M205.554 121.047H195.052V131.549H205.554V121.047Z" stroke="#F2E4E4" stroke-width="1.05021" stroke-miterlimit="10"/>
<path d="M216.056 121.047H205.554V131.549H216.056V121.047Z" stroke="#F2E4E4" stroke-width="1.05021" stroke-miterlimit="10"/>
<path d="M226.558 121.047H216.056V131.549H226.558V121.047Z" stroke="#F2E4E4" stroke-width="1.05021" stroke-miterlimit="10"/>
<path d="M237.06 121.047H226.558V131.549H237.06V121.047Z" stroke="#F2E4E4" stroke-width="1.05021" stroke-miterlimit="10"/>
<path d="M247.563 121.047H237.061V131.549H247.563V121.047Z" stroke="#F2E4E4" stroke-width="1.05021" stroke-miterlimit="10"/>
<path d="M258.065 121.047H247.562V131.549H258.065V121.047Z" stroke="#F2E4E4" stroke-width="1.05021" stroke-miterlimit="10"/>
<path d="M268.567 121.047H258.064V131.549H268.567V121.047Z" stroke="#F2E4E4" stroke-width="1.05021" stroke-miterlimit="10"/>
<path d="M279.069 121.047H268.567V131.549H279.069V121.047Z" stroke="#F2E4E4" stroke-width="1.05021" stroke-miterlimit="10"/>
<path d="M289.571 121.047H279.069V131.549H289.571V121.047Z" stroke="#F2E4E4" stroke-width="1.05021" stroke-miterlimit="10"/>
<path d="M300.073 121.047H289.571V131.549H300.073V121.047Z" stroke="#F2E4E4" stroke-width="1.05021" stroke-miterlimit="10"/>
<path d="M310.575 121.047H300.073V131.549H310.575V121.047Z" stroke="#F2E4E4" stroke-width="1.05021" stroke-miterlimit="10"/>
<path d="M69.0272 131.549H58.5251V142.051H69.0272V131.549Z" stroke="#F2E4E4" stroke-width="1.05021" stroke-miterlimit="10"/>
<path d="M79.5292 131.549H69.0271V142.051H79.5292V131.549Z" stroke="#F2E4E4" stroke-width="1.05021" stroke-miterlimit="10"/>
<path d="M90.0314 131.549H79.5293V142.051H90.0314V131.549Z" stroke="#F2E4E4" stroke-width="1.05021" stroke-miterlimit="10"/>
<path d="M100.533 131.549H90.0312V142.051H100.533V131.549Z" stroke="#F2E4E4" stroke-width="1.05021" stroke-miterlimit="10"/>
<path d="M111.036 131.549H100.533V142.051H111.036V131.549Z" stroke="#F2E4E4" stroke-width="1.05021" stroke-miterlimit="10"/>
<path d="M121.537 131.549H111.035V142.051H121.537V131.549Z" stroke="#F2E4E4" stroke-width="1.05021" stroke-miterlimit="10"/>
<path d="M132.04 131.549H121.538V142.051H132.04V131.549Z" stroke="#F2E4E4" stroke-width="1.05021" stroke-miterlimit="10"/>
<path d="M142.542 131.549H132.04V142.051H142.542V131.549Z" stroke="#F2E4E4" stroke-width="1.05021" stroke-miterlimit="10"/>
<path d="M153.044 131.549H142.542V142.051H153.044V131.549Z" stroke="#F2E4E4" stroke-width="1.05021" stroke-miterlimit="10"/>
<path d="M163.546 131.549H153.044V142.051H163.546V131.549Z" stroke="#F2E4E4" stroke-width="1.05021" stroke-miterlimit="10"/>
<path d="M174.048 131.549H163.546V142.051H174.048V131.549Z" stroke="#F2E4E4" stroke-width="1.05021" stroke-miterlimit="10"/>
<path d="M184.55 131.549H174.048V142.051H184.55V131.549Z" stroke="#F2E4E4" stroke-width="1.05021" stroke-miterlimit="10"/>
<path d="M195.052 131.549H184.55V142.051H195.052V131.549Z" stroke="#F2E4E4" stroke-width="1.05021" stroke-miterlimit="10"/>
<path d="M205.554 131.549H195.052V142.051H205.554V131.549Z" stroke="#F2E4E4" stroke-width="1.05021" stroke-miterlimit="10"/>
<path d="M216.056 131.549H205.554V142.051H216.056V131.549Z" stroke="#F2E4E4" stroke-width="1.05021" stroke-miterlimit="10"/>
<path d="M226.558 131.549H216.056V142.051H226.558V131.549Z" stroke="#F2E4E4" stroke-width="1.05021" stroke-miterlimit="10"/>
<path d="M237.06 131.549H226.558V142.051H237.06V131.549Z" stroke="#F2E4E4" stroke-width="1.05021" stroke-miterlimit="10"/>
<path d="M247.563 131.549H237.061V142.051H247.563V131.549Z" stroke="#F2E4E4" stroke-width="1.05021" stroke-miterlimit="10"/>
<path d="M258.065 131.549H247.562V142.051H258.065V131.549Z" stroke="#F2E4E4" stroke-width="1.05021" stroke-miterlimit="10"/>
<path d="M268.567 131.549H258.064V142.051H268.567V131.549Z" stroke="#F2E4E4" stroke-width="1.05021" stroke-miterlimit="10"/>
<path d="M279.069 131.549H268.567V142.051H279.069V131.549Z" stroke="#F2E4E4" stroke-width="1.05021" stroke-miterlimit="10"/>
<path d="M289.571 131.549H279.069V142.051H289.571V131.549Z" stroke="#F2E4E4" stroke-width="1.05021" stroke-miterlimit="10"/>
<path d="M300.073 131.549H289.571V142.051H300.073V131.549Z" stroke="#F2E4E4" stroke-width="1.05021" stroke-miterlimit="10"/>
<path d="M310.575 131.549H300.073V142.051H310.575V131.549Z" stroke="#F2E4E4" stroke-width="1.05021" stroke-miterlimit="10"/>
<path d="M69.0272 142.049H58.5251V152.551H69.0272V142.049Z" stroke="#F2E4E4" stroke-width="1.05021" stroke-miterlimit="10"/>
<path d="M79.5292 142.049H69.0271V152.551H79.5292V142.049Z" stroke="#F2E4E4" stroke-width="1.05021" stroke-miterlimit="10"/>
<path d="M90.0314 142.049H79.5293V152.551H90.0314V142.049Z" stroke="#F2E4E4" stroke-width="1.05021" stroke-miterlimit="10"/>
<path d="M100.533 142.049H90.0312V152.551H100.533V142.049Z" stroke="#F2E4E4" stroke-width="1.05021" stroke-miterlimit="10"/>
<path d="M111.036 142.049H100.533V152.551H111.036V142.049Z" stroke="#F2E4E4" stroke-width="1.05021" stroke-miterlimit="10"/>
<path d="M121.537 142.049H111.035V152.551H121.537V142.049Z" stroke="#F2E4E4" stroke-width="1.05021" stroke-miterlimit="10"/>
<path d="M132.04 142.049H121.538V152.551H132.04V142.049Z" stroke="#F2E4E4" stroke-width="1.05021" stroke-miterlimit="10"/>
<path d="M142.542 142.049H132.04V152.551H142.542V142.049Z" stroke="#F2E4E4" stroke-width="1.05021" stroke-miterlimit="10"/>
<path d="M153.044 142.049H142.542V152.551H153.044V142.049Z" stroke="#F2E4E4" stroke-width="1.05021" stroke-miterlimit="10"/>
<path d="M163.546 142.049H153.044V152.551H163.546V142.049Z" stroke="#F2E4E4" stroke-width="1.05021" stroke-miterlimit="10"/>
<path d="M174.048 142.049H163.546V152.551H174.048V142.049Z" stroke="#F2E4E4" stroke-width="1.05021" stroke-miterlimit="10"/>
<path d="M184.55 142.049H174.048V152.551H184.55V142.049Z" stroke="#F2E4E4" stroke-width="1.05021" stroke-miterlimit="10"/>
<path d="M195.052 142.049H184.55V152.551H195.052V142.049Z" stroke="#F2E4E4" stroke-width="1.05021" stroke-miterlimit="10"/>
<path d="M205.554 142.049H195.052V152.551H205.554V142.049Z" stroke="#F2E4E4" stroke-width="1.05021" stroke-miterlimit="10"/>
<path d="M216.056 142.049H205.554V152.551H216.056V142.049Z" stroke="#F2E4E4" stroke-width="1.05021" stroke-miterlimit="10"/>
<path d="M226.558 142.049H216.056V152.551H226.558V142.049Z" stroke="#F2E4E4" stroke-width="1.05021" stroke-miterlimit="10"/>
<path d="M237.06 142.049H226.558V152.551H237.06V142.049Z" stroke="#F2E4E4" stroke-width="1.05021" stroke-miterlimit="10"/>
<path d="M247.563 142.049H237.061V152.551H247.563V142.049Z" stroke="#F2E4E4" stroke-width="1.05021" stroke-miterlimit="10"/>
<path d="M258.065 142.049H247.562V152.551H258.065V142.049Z" stroke="#F2E4E4" stroke-width="1.05021" stroke-miterlimit="10"/>
<path d="M268.567 142.049H258.064V152.551H268.567V142.049Z" stroke="#F2E4E4" stroke-width="1.05021" stroke-miterlimit="10"/>
<path d="M279.069 142.049H268.567V152.551H279.069V142.049Z" stroke="#F2E4E4" stroke-width="1.05021" stroke-miterlimit="10"/>
<path d="M289.571 142.049H279.069V152.551H289.571V142.049Z" stroke="#F2E4E4" stroke-width="1.05021" stroke-miterlimit="10"/>
<path d="M300.073 142.049H289.571V152.551H300.073V142.049Z" stroke="#F2E4E4" stroke-width="1.05021" stroke-miterlimit="10"/>
<path d="M310.575 142.049H300.073V152.551H310.575V142.049Z" stroke="#F2E4E4" stroke-width="1.05021" stroke-miterlimit="10"/>
<path d="M69.0272 152.551H58.5251V163.053H69.0272V152.551Z" stroke="#F2E4E4" stroke-width="1.05021" stroke-miterlimit="10"/>
<path d="M79.5292 152.551H69.0271V163.053H79.5292V152.551Z" stroke="#F2E4E4" stroke-width="1.05021" stroke-miterlimit="10"/>
<path d="M90.0314 152.551H79.5293V163.053H90.0314V152.551Z" stroke="#F2E4E4" stroke-width="1.05021" stroke-miterlimit="10"/>
<path d="M100.533 152.551H90.0312V163.053H100.533V152.551Z" stroke="#F2E4E4" stroke-width="1.05021" stroke-miterlimit="10"/>
<path d="M111.036 152.551H100.533V163.053H111.036V152.551Z" stroke="#F2E4E4" stroke-width="1.05021" stroke-miterlimit="10"/>
<path d="M121.537 152.551H111.035V163.053H121.537V152.551Z" stroke="#F2E4E4" stroke-width="1.05021" stroke-miterlimit="10"/>
<path d="M132.04 152.551H121.538V163.053H132.04V152.551Z" stroke="#F2E4E4" stroke-width="1.05021" stroke-miterlimit="10"/>
<path d="M142.542 152.551H132.04V163.053H142.542V152.551Z" stroke="#F2E4E4" stroke-width="1.05021" stroke-miterlimit="10"/>
<path d="M153.044 152.551H142.542V163.053H153.044V152.551Z" stroke="#F2E4E4" stroke-width="1.05021" stroke-miterlimit="10"/>
<path d="M163.546 152.551H153.044V163.053H163.546V152.551Z" stroke="#F2E4E4" stroke-width="1.05021" stroke-miterlimit="10"/>
<path d="M174.048 152.551H163.546V163.053H174.048V152.551Z" stroke="#F2E4E4" stroke-width="1.05021" stroke-miterlimit="10"/>
<path d="M184.55 152.551H174.048V163.053H184.55V152.551Z" stroke="#F2E4E4" stroke-width="1.05021" stroke-miterlimit="10"/>
<path d="M195.052 152.551H184.55V163.053H195.052V152.551Z" stroke="#F2E4E4" stroke-width="1.05021" stroke-miterlimit="10"/>
<path d="M205.554 152.551H195.052V163.053H205.554V152.551Z" stroke="#F2E4E4" stroke-width="1.05021" stroke-miterlimit="10"/>
<path d="M216.056 152.551H205.554V163.053H216.056V152.551Z" stroke="#F2E4E4" stroke-width="1.05021" stroke-miterlimit="10"/>
<path d="M226.558 152.551H216.056V163.053H226.558V152.551Z" stroke="#F2E4E4" stroke-width="1.05021" stroke-miterlimit="10"/>
<path d="M237.06 152.551H226.558V163.053H237.06V152.551Z" stroke="#F2E4E4" stroke-width="1.05021" stroke-miterlimit="10"/>
<path d="M247.563 152.551H237.061V163.053H247.563V152.551Z" stroke="#F2E4E4" stroke-width="1.05021" stroke-miterlimit="10"/>
<path d="M258.065 152.551H247.562V163.053H258.065V152.551Z" stroke="#F2E4E4" stroke-width="1.05021" stroke-miterlimit="10"/>
<path d="M268.567 152.551H258.064V163.053H268.567V152.551Z" stroke="#F2E4E4" stroke-width="1.05021" stroke-miterlimit="10"/>
<path d="M279.069 152.551H268.567V163.053H279.069V152.551Z" stroke="#F2E4E4" stroke-width="1.05021" stroke-miterlimit="10"/>
<path d="M289.571 152.551H279.069V163.053H289.571V152.551Z" stroke="#F2E4E4" stroke-width="1.05021" stroke-miterlimit="10"/>
<path d="M300.073 152.551H289.571V163.053H300.073V152.551Z" stroke="#F2E4E4" stroke-width="1.05021" stroke-miterlimit="10"/>
<path d="M310.575 152.551H300.073V163.053H310.575V152.551Z" stroke="#F2E4E4" stroke-width="1.05021" stroke-miterlimit="10"/>
<path d="M69.0272 163.053H58.5251V173.555H69.0272V163.053Z" stroke="#F2E4E4" stroke-width="1.05021" stroke-miterlimit="10"/>
<path d="M79.5292 163.053H69.0271V173.555H79.5292V163.053Z" stroke="#F2E4E4" stroke-width="1.05021" stroke-miterlimit="10"/>
<path d="M90.0314 163.053H79.5293V173.555H90.0314V163.053Z" stroke="#F2E4E4" stroke-width="1.05021" stroke-miterlimit="10"/>
<path d="M100.533 163.053H90.0312V173.555H100.533V163.053Z" stroke="#F2E4E4" stroke-width="1.05021" stroke-miterlimit="10"/>
<path d="M111.036 163.053H100.533V173.555H111.036V163.053Z" stroke="#F2E4E4" stroke-width="1.05021" stroke-miterlimit="10"/>
<path d="M121.537 163.053H111.035V173.555H121.537V163.053Z" stroke="#F2E4E4" stroke-width="1.05021" stroke-miterlimit="10"/>
<path d="M132.04 163.053H121.538V173.555H132.04V163.053Z" stroke="#F2E4E4" stroke-width="1.05021" stroke-miterlimit="10"/>
<path d="M142.542 163.053H132.04V173.555H142.542V163.053Z" stroke="#F2E4E4" stroke-width="1.05021" stroke-miterlimit="10"/>
<path d="M153.044 163.053H142.542V173.555H153.044V163.053Z" stroke="#F2E4E4" stroke-width="1.05021" stroke-miterlimit="10"/>
<path d="M163.546 163.053H153.044V173.555H163.546V163.053Z" stroke="#F2E4E4" stroke-width="1.05021" stroke-miterlimit="10"/>
<path d="M174.048 163.053H163.546V173.555H174.048V163.053Z" stroke="#F2E4E4" stroke-width="1.05021" stroke-miterlimit="10"/>
<path d="M184.55 163.053H174.048V173.555H184.55V163.053Z" stroke="#F2E4E4" stroke-width="1.05021" stroke-miterlimit="10"/>
<path d="M195.052 163.053H184.55V173.555H195.052V163.053Z" stroke="#F2E4E4" stroke-width="1.05021" stroke-miterlimit="10"/>
<path d="M205.554 163.053H195.052V173.555H205.554V163.053Z" stroke="#F2E4E4" stroke-width="1.05021" stroke-miterlimit="10"/>
<path d="M216.056 163.053H205.554V173.555H216.056V163.053Z" stroke="#F2E4E4" stroke-width="1.05021" stroke-miterlimit="10"/>
<path d="M226.558 163.053H216.056V173.555H226.558V163.053Z" stroke="#F2E4E4" stroke-width="1.05021" stroke-miterlimit="10"/>
<path d="M237.06 163.053H226.558V173.555H237.06V163.053Z" stroke="#F2E4E4" stroke-width="1.05021" stroke-miterlimit="10"/>
<path d="M247.563 163.053H237.061V173.555H247.563V163.053Z" stroke="#F2E4E4" stroke-width="1.05021" stroke-miterlimit="10"/>
<path d="M258.065 163.053H247.562V173.555H258.065V163.053Z" stroke="#F2E4E4" stroke-width="1.05021" stroke-miterlimit="10"/>
<path d="M268.567 163.053H258.064V173.555H268.567V163.053Z" stroke="#F2E4E4" stroke-width="1.05021" stroke-miterlimit="10"/>
<path d="M279.069 163.053H268.567V173.555H279.069V163.053Z" stroke="#F2E4E4" stroke-width="1.05021" stroke-miterlimit="10"/>
<path d="M289.571 163.053H279.069V173.555H289.571V163.053Z" stroke="#F2E4E4" stroke-width="1.05021" stroke-miterlimit="10"/>
<path d="M300.073 163.053H289.571V173.555H300.073V163.053Z" stroke="#F2E4E4" stroke-width="1.05021" stroke-miterlimit="10"/>
<path d="M310.575 163.053H300.073V173.555H310.575V163.053Z" stroke="#F2E4E4" stroke-width="1.05021" stroke-miterlimit="10"/>
<path d="M69.0272 173.555H58.5251V184.057H69.0272V173.555Z" stroke="#F2E4E4" stroke-width="1.05021" stroke-miterlimit="10"/>
<path d="M79.5292 173.555H69.0271V184.057H79.5292V173.555Z" stroke="#F2E4E4" stroke-width="1.05021" stroke-miterlimit="10"/>
<path d="M90.0314 173.555H79.5293V184.057H90.0314V173.555Z" stroke="#F2E4E4" stroke-width="1.05021" stroke-miterlimit="10"/>
<path d="M100.533 173.555H90.0312V184.057H100.533V173.555Z" stroke="#F2E4E4" stroke-width="1.05021" stroke-miterlimit="10"/>
<path d="M111.036 173.555H100.533V184.057H111.036V173.555Z" stroke="#F2E4E4" stroke-width="1.05021" stroke-miterlimit="10"/>
<path d="M121.537 173.555H111.035V184.057H121.537V173.555Z" stroke="#F2E4E4" stroke-width="1.05021" stroke-miterlimit="10"/>
<path d="M132.04 173.555H121.538V184.057H132.04V173.555Z" stroke="#F2E4E4" stroke-width="1.05021" stroke-miterlimit="10"/>
<path d="M142.542 173.555H132.04V184.057H142.542V173.555Z" stroke="#F2E4E4" stroke-width="1.05021" stroke-miterlimit="10"/>
<path d="M153.044 173.555H142.542V184.057H153.044V173.555Z" stroke="#F2E4E4" stroke-width="1.05021" stroke-miterlimit="10"/>
<path d="M163.546 173.555H153.044V184.057H163.546V173.555Z" stroke="#F2E4E4" stroke-width="1.05021" stroke-miterlimit="10"/>
<path d="M174.048 173.555H163.546V184.057H174.048V173.555Z" stroke="#F2E4E4" stroke-width="1.05021" stroke-miterlimit="10"/>
<path d="M184.55 173.555H174.048V184.057H184.55V173.555Z" stroke="#F2E4E4" stroke-width="1.05021" stroke-miterlimit="10"/>
<path d="M195.052 173.555H184.55V184.057H195.052V173.555Z" stroke="#F2E4E4" stroke-width="1.05021" stroke-miterlimit="10"/>
<path d="M205.554 173.555H195.052V184.057H205.554V173.555Z" stroke="#F2E4E4" stroke-width="1.05021" stroke-miterlimit="10"/>
<path d="M216.056 173.555H205.554V184.057H216.056V173.555Z" stroke="#F2E4E4" stroke-width="1.05021" stroke-miterlimit="10"/>
<path d="M226.558 173.555H216.056V184.057H226.558V173.555Z" stroke="#F2E4E4" stroke-width="1.05021" stroke-miterlimit="10"/>
<path d="M237.06 173.555H226.558V184.057H237.06V173.555Z" stroke="#F2E4E4" stroke-width="1.05021" stroke-miterlimit="10"/>
<path d="M247.563 173.555H237.061V184.057H247.563V173.555Z" stroke="#F2E4E4" stroke-width="1.05021" stroke-miterlimit="10"/>
<path d="M258.065 173.555H247.562V184.057H258.065V173.555Z" stroke="#F2E4E4" stroke-width="1.05021" stroke-miterlimit="10"/>
<path d="M268.567 173.555H258.064V184.057H268.567V173.555Z" stroke="#F2E4E4" stroke-width="1.05021" stroke-miterlimit="10"/>
<path d="M279.069 173.555H268.567V184.057H279.069V173.555Z" stroke="#F2E4E4" stroke-width="1.05021" stroke-miterlimit="10"/>
<path d="M289.571 173.555H279.069V184.057H289.571V173.555Z" stroke="#F2E4E4" stroke-width="1.05021" stroke-miterlimit="10"/>
<path d="M300.073 173.555H289.571V184.057H300.073V173.555Z" stroke="#F2E4E4" stroke-width="1.05021" stroke-miterlimit="10"/>
<path d="M310.575 173.555H300.073V184.057H310.575V173.555Z" stroke="#F2E4E4" stroke-width="1.05021" stroke-miterlimit="10"/>
<path d="M69.0272 184.059H58.5251V194.561H69.0272V184.059Z" stroke="#F2E4E4" stroke-width="1.05021" stroke-miterlimit="10"/>
<path d="M79.5292 184.059H69.0271V194.561H79.5292V184.059Z" stroke="#F2E4E4" stroke-width="1.05021" stroke-miterlimit="10"/>
<path d="M90.0314 184.059H79.5293V194.561H90.0314V184.059Z" stroke="#F2E4E4" stroke-width="1.05021" stroke-miterlimit="10"/>
<path d="M100.533 184.059H90.0312V194.561H100.533V184.059Z" stroke="#F2E4E4" stroke-width="1.05021" stroke-miterlimit="10"/>
<path d="M111.036 184.059H100.533V194.561H111.036V184.059Z" stroke="#F2E4E4" stroke-width="1.05021" stroke-miterlimit="10"/>
<path d="M121.537 184.059H111.035V194.561H121.537V184.059Z" stroke="#F2E4E4" stroke-width="1.05021" stroke-miterlimit="10"/>
<path d="M132.04 184.059H121.538V194.561H132.04V184.059Z" stroke="#F2E4E4" stroke-width="1.05021" stroke-miterlimit="10"/>
<path d="M142.542 184.059H132.04V194.561H142.542V184.059Z" stroke="#F2E4E4" stroke-width="1.05021" stroke-miterlimit="10"/>
<path d="M153.044 184.059H142.542V194.561H153.044V184.059Z" stroke="#F2E4E4" stroke-width="1.05021" stroke-miterlimit="10"/>
<path d="M163.546 184.059H153.044V194.561H163.546V184.059Z" stroke="#F2E4E4" stroke-width="1.05021" stroke-miterlimit="10"/>
<path d="M174.048 184.059H163.546V194.561H174.048V184.059Z" stroke="#F2E4E4" stroke-width="1.05021" stroke-miterlimit="10"/>
<path d="M184.55 184.059H174.048V194.561H184.55V184.059Z" stroke="#F2E4E4" stroke-width="1.05021" stroke-miterlimit="10"/>
<path d="M195.052 184.059H184.55V194.561H195.052V184.059Z" stroke="#F2E4E4" stroke-width="1.05021" stroke-miterlimit="10"/>
<path d="M205.554 184.059H195.052V194.561H205.554V184.059Z" stroke="#F2E4E4" stroke-width="1.05021" stroke-miterlimit="10"/>
<path d="M216.056 184.059H205.554V194.561H216.056V184.059Z" stroke="#F2E4E4" stroke-width="1.05021" stroke-miterlimit="10"/>
<path d="M226.558 184.059H216.056V194.561H226.558V184.059Z" stroke="#F2E4E4" stroke-width="1.05021" stroke-miterlimit="10"/>
<path d="M237.06 184.059H226.558V194.561H237.06V184.059Z" stroke="#F2E4E4" stroke-width="1.05021" stroke-miterlimit="10"/>
<path d="M247.563 184.059H237.061V194.561H247.563V184.059Z" stroke="#F2E4E4" stroke-width="1.05021" stroke-miterlimit="10"/>
<path d="M258.065 184.059H247.562V194.561H258.065V184.059Z" stroke="#F2E4E4" stroke-width="1.05021" stroke-miterlimit="10"/>
<path d="M268.567 184.059H258.064V194.561H268.567V184.059Z" stroke="#F2E4E4" stroke-width="1.05021" stroke-miterlimit="10"/>
<path d="M279.069 184.059H268.567V194.561H279.069V184.059Z" stroke="#F2E4E4" stroke-width="1.05021" stroke-miterlimit="10"/>
<path d="M289.571 184.059H279.069V194.561H289.571V184.059Z" stroke="#F2E4E4" stroke-width="1.05021" stroke-miterlimit="10"/>
<path d="M300.073 184.059H289.571V194.561H300.073V184.059Z" stroke="#F2E4E4" stroke-width="1.05021" stroke-miterlimit="10"/>
<path d="M310.575 184.059H300.073V194.561H310.575V184.059Z" stroke="#F2E4E4" stroke-width="1.05021" stroke-miterlimit="10"/>
<path d="M69.0272 194.561H58.5251V205.063H69.0272V194.561Z" stroke="#F2E4E4" stroke-width="1.05021" stroke-miterlimit="10"/>
<path d="M79.5292 194.561H69.0271V205.063H79.5292V194.561Z" stroke="#F2E4E4" stroke-width="1.05021" stroke-miterlimit="10"/>
<path d="M90.0314 194.561H79.5293V205.063H90.0314V194.561Z" stroke="#F2E4E4" stroke-width="1.05021" stroke-miterlimit="10"/>
<path d="M100.533 194.561H90.0312V205.063H100.533V194.561Z" stroke="#F2E4E4" stroke-width="1.05021" stroke-miterlimit="10"/>
<path d="M111.036 194.561H100.533V205.063H111.036V194.561Z" stroke="#F2E4E4" stroke-width="1.05021" stroke-miterlimit="10"/>
<path d="M121.537 194.561H111.035V205.063H121.537V194.561Z" stroke="#F2E4E4" stroke-width="1.05021" stroke-miterlimit="10"/>
<path d="M132.04 194.561H121.538V205.063H132.04V194.561Z" stroke="#F2E4E4" stroke-width="1.05021" stroke-miterlimit="10"/>
<path d="M142.542 194.561H132.04V205.063H142.542V194.561Z" stroke="#F2E4E4" stroke-width="1.05021" stroke-miterlimit="10"/>
<path d="M153.044 194.561H142.542V205.063H153.044V194.561Z" stroke="#F2E4E4" stroke-width="1.05021" stroke-miterlimit="10"/>
<path d="M163.546 194.561H153.044V205.063H163.546V194.561Z" stroke="#F2E4E4" stroke-width="1.05021" stroke-miterlimit="10"/>
<path d="M174.048 194.561H163.546V205.063H174.048V194.561Z" stroke="#F2E4E4" stroke-width="1.05021" stroke-miterlimit="10"/>
<path d="M184.55 194.561H174.048V205.063H184.55V194.561Z" stroke="#F2E4E4" stroke-width="1.05021" stroke-miterlimit="10"/>
<path d="M195.052 194.561H184.55V205.063H195.052V194.561Z" stroke="#F2E4E4" stroke-width="1.05021" stroke-miterlimit="10"/>
<path d="M205.554 194.561H195.052V205.063H205.554V194.561Z" stroke="#F2E4E4" stroke-width="1.05021" stroke-miterlimit="10"/>
<path d="M216.056 194.561H205.554V205.063H216.056V194.561Z" stroke="#F2E4E4" stroke-width="1.05021" stroke-miterlimit="10"/>
<path d="M226.558 194.561H216.056V205.063H226.558V194.561Z" stroke="#F2E4E4" stroke-width="1.05021" stroke-miterlimit="10"/>
<path d="M237.06 194.561H226.558V205.063H237.06V194.561Z" stroke="#F2E4E4" stroke-width="1.05021" stroke-miterlimit="10"/>
<path d="M247.563 194.561H237.061V205.063H247.563V194.561Z" stroke="#F2E4E4" stroke-width="1.05021" stroke-miterlimit="10"/>
<path d="M258.065 194.561H247.562V205.063H258.065V194.561Z" stroke="#F2E4E4" stroke-width="1.05021" stroke-miterlimit="10"/>
<path d="M268.567 194.561H258.064V205.063H268.567V194.561Z" stroke="#F2E4E4" stroke-width="1.05021" stroke-miterlimit="10"/>
<path d="M279.069 194.561H268.567V205.063H279.069V194.561Z" stroke="#F2E4E4" stroke-width="1.05021" stroke-miterlimit="10"/>
<path d="M289.571 194.561H279.069V205.063H289.571V194.561Z" stroke="#F2E4E4" stroke-width="1.05021" stroke-miterlimit="10"/>
<path d="M300.073 194.561H289.571V205.063H300.073V194.561Z" stroke="#F2E4E4" stroke-width="1.05021" stroke-miterlimit="10"/>
<path d="M310.575 194.561H300.073V205.063H310.575V194.561Z" stroke="#F2E4E4" stroke-width="1.05021" stroke-miterlimit="10"/>
<path d="M69.0272 205.062H58.5251V215.564H69.0272V205.062Z" stroke="#F2E4E4" stroke-width="1.05021" stroke-miterlimit="10"/>
<path d="M79.5292 205.062H69.0271V215.564H79.5292V205.062Z" stroke="#F2E4E4" stroke-width="1.05021" stroke-miterlimit="10"/>
<path d="M90.0314 205.062H79.5293V215.564H90.0314V205.062Z" stroke="#F2E4E4" stroke-width="1.05021" stroke-miterlimit="10"/>
<path d="M100.533 205.062H90.0312V215.564H100.533V205.062Z" stroke="#F2E4E4" stroke-width="1.05021" stroke-miterlimit="10"/>
<path d="M111.036 205.062H100.533V215.564H111.036V205.062Z" stroke="#F2E4E4" stroke-width="1.05021" stroke-miterlimit="10"/>
<path d="M121.537 205.062H111.035V215.564H121.537V205.062Z" stroke="#F2E4E4" stroke-width="1.05021" stroke-miterlimit="10"/>
<path d="M132.04 205.062H121.538V215.564H132.04V205.062Z" stroke="#F2E4E4" stroke-width="1.05021" stroke-miterlimit="10"/>
<path d="M142.542 205.062H132.04V215.564H142.542V205.062Z" stroke="#F2E4E4" stroke-width="1.05021" stroke-miterlimit="10"/>
<path d="M153.044 205.062H142.542V215.564H153.044V205.062Z" stroke="#F2E4E4" stroke-width="1.05021" stroke-miterlimit="10"/>
<path d="M163.546 205.062H153.044V215.564H163.546V205.062Z" stroke="#F2E4E4" stroke-width="1.05021" stroke-miterlimit="10"/>
<path d="M174.048 205.062H163.546V215.564H174.048V205.062Z" stroke="#F2E4E4" stroke-width="1.05021" stroke-miterlimit="10"/>
<path d="M184.55 205.062H174.048V215.564H184.55V205.062Z" stroke="#F2E4E4" stroke-width="1.05021" stroke-miterlimit="10"/>
<path d="M195.052 205.062H184.55V215.564H195.052V205.062Z" stroke="#F2E4E4" stroke-width="1.05021" stroke-miterlimit="10"/>
<path d="M205.554 205.062H195.052V215.564H205.554V205.062Z" stroke="#F2E4E4" stroke-width="1.05021" stroke-miterlimit="10"/>
<path d="M216.056 205.062H205.554V215.564H216.056V205.062Z" stroke="#F2E4E4" stroke-width="1.05021" stroke-miterlimit="10"/>
<path d="M226.558 205.062H216.056V215.564H226.558V205.062Z" stroke="#F2E4E4" stroke-width="1.05021" stroke-miterlimit="10"/>
<path d="M237.06 205.062H226.558V215.564H237.06V205.062Z" stroke="#F2E4E4" stroke-width="1.05021" stroke-miterlimit="10"/>
<path d="M247.562 205.062H237.06V215.564H247.562V205.062Z" stroke="#F2E4E4" stroke-width="1.05021" stroke-miterlimit="10"/>
<path d="M258.065 205.062H247.562V215.564H258.065V205.062Z" stroke="#F2E4E4" stroke-width="1.05021" stroke-miterlimit="10"/>
<path d="M268.567 205.062H258.064V215.564H268.567V205.062Z" stroke="#F2E4E4" stroke-width="1.05021" stroke-miterlimit="10"/>
<path d="M279.069 205.062H268.567V215.564H279.069V205.062Z" stroke="#F2E4E4" stroke-width="1.05021" stroke-miterlimit="10"/>
<path d="M289.571 205.062H279.069V215.564H289.571V205.062Z" stroke="#F2E4E4" stroke-width="1.05021" stroke-miterlimit="10"/>
<path d="M300.073 205.062H289.571V215.564H300.073V205.062Z" stroke="#F2E4E4" stroke-width="1.05021" stroke-miterlimit="10"/>
<path d="M310.575 205.062H300.073V215.564H310.575V205.062Z" stroke="#F2E4E4" stroke-width="1.05021" stroke-miterlimit="10"/>
<path d="M69.0272 215.564H58.5251V226.067H69.0272V215.564Z" stroke="#F2E4E4" stroke-width="1.05021" stroke-miterlimit="10"/>
<path d="M79.5292 215.564H69.0271V226.067H79.5292V215.564Z" stroke="#F2E4E4" stroke-width="1.05021" stroke-miterlimit="10"/>
<path d="M90.0314 215.564H79.5293V226.067H90.0314V215.564Z" stroke="#F2E4E4" stroke-width="1.05021" stroke-miterlimit="10"/>
<path d="M100.533 215.564H90.0312V226.067H100.533V215.564Z" stroke="#F2E4E4" stroke-width="1.05021" stroke-miterlimit="10"/>
<path d="M111.036 215.564H100.533V226.067H111.036V215.564Z" stroke="#F2E4E4" stroke-width="1.05021" stroke-miterlimit="10"/>
<path d="M121.537 215.564H111.035V226.067H121.537V215.564Z" stroke="#F2E4E4" stroke-width="1.05021" stroke-miterlimit="10"/>
<path d="M132.04 215.564H121.538V226.067H132.04V215.564Z" stroke="#F2E4E4" stroke-width="1.05021" stroke-miterlimit="10"/>
<path d="M142.542 215.564H132.04V226.067H142.542V215.564Z" stroke="#F2E4E4" stroke-width="1.05021" stroke-miterlimit="10"/>
<path d="M153.044 215.564H142.542V226.067H153.044V215.564Z" stroke="#F2E4E4" stroke-width="1.05021" stroke-miterlimit="10"/>
<path d="M163.546 215.564H153.044V226.067H163.546V215.564Z" stroke="#F2E4E4" stroke-width="1.05021" stroke-miterlimit="10"/>
<path d="M174.048 215.564H163.546V226.067H174.048V215.564Z" stroke="#F2E4E4" stroke-width="1.05021" stroke-miterlimit="10"/>
<path d="M184.55 215.564H174.048V226.067H184.55V215.564Z" stroke="#F2E4E4" stroke-width="1.05021" stroke-miterlimit="10"/>
<path d="M195.052 215.564H184.55V226.067H195.052V215.564Z" stroke="#F2E4E4" stroke-width="1.05021" stroke-miterlimit="10"/>
<path d="M205.554 215.564H195.052V226.067H205.554V215.564Z" stroke="#F2E4E4" stroke-width="1.05021" stroke-miterlimit="10"/>
<path d="M216.056 215.564H205.554V226.067H216.056V215.564Z" stroke="#F2E4E4" stroke-width="1.05021" stroke-miterlimit="10"/>
<path d="M226.558 215.564H216.056V226.067H226.558V215.564Z" stroke="#F2E4E4" stroke-width="1.05021" stroke-miterlimit="10"/>
<path d="M237.06 215.564H226.558V226.067H237.06V215.564Z" stroke="#F2E4E4" stroke-width="1.05021" stroke-miterlimit="10"/>
<path d="M247.562 215.564H237.06V226.067H247.562V215.564Z" stroke="#F2E4E4" stroke-width="1.05021" stroke-miterlimit="10"/>
<path d="M258.065 215.564H247.562V226.067H258.065V215.564Z" stroke="#F2E4E4" stroke-width="1.05021" stroke-miterlimit="10"/>
<path d="M268.567 215.564H258.064V226.067H268.567V215.564Z" stroke="#F2E4E4" stroke-width="1.05021" stroke-miterlimit="10"/>
<path d="M279.069 215.564H268.567V226.067H279.069V215.564Z" stroke="#F2E4E4" stroke-width="1.05021" stroke-miterlimit="10"/>
<path d="M289.571 215.564H279.069V226.067H289.571V215.564Z" stroke="#F2E4E4" stroke-width="1.05021" stroke-miterlimit="10"/>
<path d="M300.073 215.564H289.571V226.067H300.073V215.564Z" stroke="#F2E4E4" stroke-width="1.05021" stroke-miterlimit="10"/>
<path d="M310.575 215.564H300.073V226.067H310.575V215.564Z" stroke="#F2E4E4" stroke-width="1.05021" stroke-miterlimit="10"/>
<path d="M69.0272 226.067H58.5251V236.569H69.0272V226.067Z" stroke="#F2E4E4" stroke-width="1.05021" stroke-miterlimit="10"/>
<path d="M79.5292 226.067H69.0271V236.569H79.5292V226.067Z" stroke="#F2E4E4" stroke-width="1.05021" stroke-miterlimit="10"/>
<path d="M90.0314 226.067H79.5293V236.569H90.0314V226.067Z" stroke="#F2E4E4" stroke-width="1.05021" stroke-miterlimit="10"/>
<path d="M100.533 226.067H90.0312V236.569H100.533V226.067Z" stroke="#F2E4E4" stroke-width="1.05021" stroke-miterlimit="10"/>
<path d="M111.036 226.067H100.533V236.569H111.036V226.067Z" stroke="#F2E4E4" stroke-width="1.05021" stroke-miterlimit="10"/>
<path d="M121.537 226.067H111.035V236.569H121.537V226.067Z" stroke="#F2E4E4" stroke-width="1.05021" stroke-miterlimit="10"/>
<path d="M132.04 226.067H121.538V236.569H132.04V226.067Z" stroke="#F2E4E4" stroke-width="1.05021" stroke-miterlimit="10"/>
<path d="M142.542 226.067H132.04V236.569H142.542V226.067Z" stroke="#F2E4E4" stroke-width="1.05021" stroke-miterlimit="10"/>
<path d="M153.044 226.067H142.542V236.569H153.044V226.067Z" stroke="#F2E4E4" stroke-width="1.05021" stroke-miterlimit="10"/>
<path d="M163.546 226.067H153.044V236.569H163.546V226.067Z" stroke="#F2E4E4" stroke-width="1.05021" stroke-miterlimit="10"/>
<path d="M174.048 226.067H163.546V236.569H174.048V226.067Z" stroke="#F2E4E4" stroke-width="1.05021" stroke-miterlimit="10"/>
<path d="M184.55 226.067H174.048V236.569H184.55V226.067Z" stroke="#F2E4E4" stroke-width="1.05021" stroke-miterlimit="10"/>
<path d="M195.052 226.067H184.55V236.569H195.052V226.067Z" stroke="#F2E4E4" stroke-width="1.05021" stroke-miterlimit="10"/>
<path d="M205.554 226.067H195.052V236.569H205.554V226.067Z" stroke="#F2E4E4" stroke-width="1.05021" stroke-miterlimit="10"/>
<path d="M216.056 226.067H205.554V236.569H216.056V226.067Z" stroke="#F2E4E4" stroke-width="1.05021" stroke-miterlimit="10"/>
<path d="M226.558 226.067H216.056V236.569H226.558V226.067Z" stroke="#F2E4E4" stroke-width="1.05021" stroke-miterlimit="10"/>
<path d="M237.06 226.067H226.558V236.569H237.06V226.067Z" stroke="#F2E4E4" stroke-width="1.05021" stroke-miterlimit="10"/>
<path d="M247.562 226.067H237.06V236.569H247.562V226.067Z" stroke="#F2E4E4" stroke-width="1.05021" stroke-miterlimit="10"/>
<path d="M258.065 226.067H247.562V236.569H258.065V226.067Z" stroke="#F2E4E4" stroke-width="1.05021" stroke-miterlimit="10"/>
<path d="M268.567 226.067H258.064V236.569H268.567V226.067Z" stroke="#F2E4E4" stroke-width="1.05021" stroke-miterlimit="10"/>
<path d="M279.069 226.067H268.567V236.569H279.069V226.067Z" stroke="#F2E4E4" stroke-width="1.05021" stroke-miterlimit="10"/>
<path d="M289.571 226.067H279.069V236.569H289.571V226.067Z" stroke="#F2E4E4" stroke-width="1.05021" stroke-miterlimit="10"/>
<path d="M300.073 226.067H289.571V236.569H300.073V226.067Z" stroke="#F2E4E4" stroke-width="1.05021" stroke-miterlimit="10"/>
<path d="M310.575 226.067H300.073V236.569H310.575V226.067Z" stroke="#F2E4E4" stroke-width="1.05021" stroke-miterlimit="10"/>
<path d="M69.0272 236.569H58.5251V247.071H69.0272V236.569Z" stroke="#F2E4E4" stroke-width="1.05021" stroke-miterlimit="10"/>
<path d="M79.5292 236.569H69.0271V247.071H79.5292V236.569Z" stroke="#F2E4E4" stroke-width="1.05021" stroke-miterlimit="10"/>
<path d="M90.0314 236.569H79.5293V247.071H90.0314V236.569Z" stroke="#F2E4E4" stroke-width="1.05021" stroke-miterlimit="10"/>
<path d="M100.533 236.569H90.0312V247.071H100.533V236.569Z" stroke="#F2E4E4" stroke-width="1.05021" stroke-miterlimit="10"/>
<path d="M111.036 236.569H100.533V247.071H111.036V236.569Z" stroke="#F2E4E4" stroke-width="1.05021" stroke-miterlimit="10"/>
<path d="M121.537 236.569H111.035V247.071H121.537V236.569Z" stroke="#F2E4E4" stroke-width="1.05021" stroke-miterlimit="10"/>
<path d="M132.04 236.569H121.538V247.071H132.04V236.569Z" stroke="#F2E4E4" stroke-width="1.05021" stroke-miterlimit="10"/>
<path d="M142.542 236.569H132.04V247.071H142.542V236.569Z" stroke="#F2E4E4" stroke-width="1.05021" stroke-miterlimit="10"/>
<path d="M153.044 236.569H142.542V247.071H153.044V236.569Z" stroke="#F2E4E4" stroke-width="1.05021" stroke-miterlimit="10"/>
<path d="M163.546 236.569H153.044V247.071H163.546V236.569Z" stroke="#F2E4E4" stroke-width="1.05021" stroke-miterlimit="10"/>
<path d="M174.048 236.569H163.546V247.071H174.048V236.569Z" stroke="#F2E4E4" stroke-width="1.05021" stroke-miterlimit="10"/>
<path d="M184.55 236.569H174.048V247.071H184.55V236.569Z" stroke="#F2E4E4" stroke-width="1.05021" stroke-miterlimit="10"/>
<path d="M195.052 236.569H184.55V247.071H195.052V236.569Z" stroke="#F2E4E4" stroke-width="1.05021" stroke-miterlimit="10"/>
<path d="M205.554 236.569H195.052V247.071H205.554V236.569Z" stroke="#F2E4E4" stroke-width="1.05021" stroke-miterlimit="10"/>
<path d="M216.056 236.569H205.554V247.071H216.056V236.569Z" stroke="#F2E4E4" stroke-width="1.05021" stroke-miterlimit="10"/>
<path d="M226.558 236.569H216.056V247.071H226.558V236.569Z" stroke="#F2E4E4" stroke-width="1.05021" stroke-miterlimit="10"/>
<path d="M237.06 236.569H226.558V247.071H237.06V236.569Z" stroke="#F2E4E4" stroke-width="1.05021" stroke-miterlimit="10"/>
<path d="M247.562 236.569H237.06V247.071H247.562V236.569Z" stroke="#F2E4E4" stroke-width="1.05021" stroke-miterlimit="10"/>
<path d="M258.065 236.569H247.562V247.071H258.065V236.569Z" stroke="#F2E4E4" stroke-width="1.05021" stroke-miterlimit="10"/>
<path d="M268.567 236.569H258.064V247.071H268.567V236.569Z" stroke="#F2E4E4" stroke-width="1.05021" stroke-miterlimit="10"/>
<path d="M279.069 236.569H268.567V247.071H279.069V236.569Z" stroke="#F2E4E4" stroke-width="1.05021" stroke-miterlimit="10"/>
<path d="M289.571 236.569H279.069V247.071H289.571V236.569Z" stroke="#F2E4E4" stroke-width="1.05021" stroke-miterlimit="10"/>
<path d="M300.073 236.569H289.571V247.071H300.073V236.569Z" stroke="#F2E4E4" stroke-width="1.05021" stroke-miterlimit="10"/>
<path d="M310.575 236.569H300.073V247.071H310.575V236.569Z" stroke="#F2E4E4" stroke-width="1.05021" stroke-miterlimit="10"/>
<path d="M69.0272 247.07H58.5251V257.572H69.0272V247.07Z" stroke="#F2E4E4" stroke-width="1.05021" stroke-miterlimit="10"/>
<path d="M79.5292 247.07H69.0271V257.572H79.5292V247.07Z" stroke="#F2E4E4" stroke-width="1.05021" stroke-miterlimit="10"/>
<path d="M90.0314 247.07H79.5293V257.572H90.0314V247.07Z" stroke="#F2E4E4" stroke-width="1.05021" stroke-miterlimit="10"/>
<path d="M100.533 247.07H90.0312V257.572H100.533V247.07Z" stroke="#F2E4E4" stroke-width="1.05021" stroke-miterlimit="10"/>
<path d="M111.036 247.07H100.533V257.572H111.036V247.07Z" stroke="#F2E4E4" stroke-width="1.05021" stroke-miterlimit="10"/>
<path d="M121.537 247.07H111.035V257.572H121.537V247.07Z" stroke="#F2E4E4" stroke-width="1.05021" stroke-miterlimit="10"/>
<path d="M132.04 247.07H121.538V257.572H132.04V247.07Z" stroke="#F2E4E4" stroke-width="1.05021" stroke-miterlimit="10"/>
<path d="M142.542 247.07H132.04V257.572H142.542V247.07Z" stroke="#F2E4E4" stroke-width="1.05021" stroke-miterlimit="10"/>
<path d="M153.044 247.07H142.542V257.572H153.044V247.07Z" stroke="#F2E4E4" stroke-width="1.05021" stroke-miterlimit="10"/>
<path d="M163.546 247.07H153.044V257.572H163.546V247.07Z" stroke="#F2E4E4" stroke-width="1.05021" stroke-miterlimit="10"/>
<path d="M174.048 247.07H163.546V257.572H174.048V247.07Z" stroke="#F2E4E4" stroke-width="1.05021" stroke-miterlimit="10"/>
<path d="M184.55 247.07H174.048V257.572H184.55V247.07Z" stroke="#F2E4E4" stroke-width="1.05021" stroke-miterlimit="10"/>
<path d="M195.052 247.07H184.55V257.572H195.052V247.07Z" stroke="#F2E4E4" stroke-width="1.05021" stroke-miterlimit="10"/>
<path d="M205.554 247.07H195.052V257.572H205.554V247.07Z" stroke="#F2E4E4" stroke-width="1.05021" stroke-miterlimit="10"/>
<path d="M216.056 247.07H205.554V257.572H216.056V247.07Z" stroke="#F2E4E4" stroke-width="1.05021" stroke-miterlimit="10"/>
<path d="M226.558 247.07H216.056V257.572H226.558V247.07Z" stroke="#F2E4E4" stroke-width="1.05021" stroke-miterlimit="10"/>
<path d="M237.06 247.07H226.558V257.572H237.06V247.07Z" stroke="#F2E4E4" stroke-width="1.05021" stroke-miterlimit="10"/>
<path d="M247.563 247.07H237.061V257.572H247.563V247.07Z" stroke="#F2E4E4" stroke-width="1.05021" stroke-miterlimit="10"/>
<path d="M258.065 247.07H247.562V257.572H258.065V247.07Z" stroke="#F2E4E4" stroke-width="1.05021" stroke-miterlimit="10"/>
<path d="M268.567 247.07H258.064V257.572H268.567V247.07Z" stroke="#F2E4E4" stroke-width="1.05021" stroke-miterlimit="10"/>
<path d="M279.069 247.07H268.567V257.572H279.069V247.07Z" stroke="#F2E4E4" stroke-width="1.05021" stroke-miterlimit="10"/>
<path d="M289.571 247.07H279.069V257.572H289.571V247.07Z" stroke="#F2E4E4" stroke-width="1.05021" stroke-miterlimit="10"/>
<path d="M300.073 247.07H289.571V257.572H300.073V247.07Z" stroke="#F2E4E4" stroke-width="1.05021" stroke-miterlimit="10"/>
<path d="M310.575 247.07H300.073V257.572H310.575V247.07Z" stroke="#F2E4E4" stroke-width="1.05021" stroke-miterlimit="10"/>
<path d="M69.0272 257.572H58.5251V268.074H69.0272V257.572Z" stroke="#F2E4E4" stroke-width="1.05021" stroke-miterlimit="10"/>
<path d="M79.5292 257.572H69.0271V268.074H79.5292V257.572Z" stroke="#F2E4E4" stroke-width="1.05021" stroke-miterlimit="10"/>
<path d="M90.0314 257.572H79.5293V268.074H90.0314V257.572Z" stroke="#F2E4E4" stroke-width="1.05021" stroke-miterlimit="10"/>
<path d="M100.533 257.572H90.0312V268.074H100.533V257.572Z" stroke="#F2E4E4" stroke-width="1.05021" stroke-miterlimit="10"/>
<path d="M111.036 257.572H100.533V268.074H111.036V257.572Z" stroke="#F2E4E4" stroke-width="1.05021" stroke-miterlimit="10"/>
<path d="M121.537 257.572H111.035V268.074H121.537V257.572Z" stroke="#F2E4E4" stroke-width="1.05021" stroke-miterlimit="10"/>
<path d="M132.04 257.572H121.538V268.074H132.04V257.572Z" stroke="#F2E4E4" stroke-width="1.05021" stroke-miterlimit="10"/>
<path d="M142.542 257.572H132.04V268.074H142.542V257.572Z" stroke="#F2E4E4" stroke-width="1.05021" stroke-miterlimit="10"/>
<path d="M153.044 257.572H142.542V268.074H153.044V257.572Z" stroke="#F2E4E4" stroke-width="1.05021" stroke-miterlimit="10"/>
<path d="M163.546 257.572H153.044V268.074H163.546V257.572Z" stroke="#F2E4E4" stroke-width="1.05021" stroke-miterlimit="10"/>
<path d="M174.048 257.572H163.546V268.074H174.048V257.572Z" stroke="#F2E4E4" stroke-width="1.05021" stroke-miterlimit="10"/>
<path d="M184.55 257.572H174.048V268.074H184.55V257.572Z" stroke="#F2E4E4" stroke-width="1.05021" stroke-miterlimit="10"/>
<path d="M195.052 257.572H184.55V268.074H195.052V257.572Z" stroke="#F2E4E4" stroke-width="1.05021" stroke-miterlimit="10"/>
<path d="M205.554 257.572H195.052V268.074H205.554V257.572Z" stroke="#F2E4E4" stroke-width="1.05021" stroke-miterlimit="10"/>
<path d="M216.056 257.572H205.554V268.074H216.056V257.572Z" stroke="#F2E4E4" stroke-width="1.05021" stroke-miterlimit="10"/>
<path d="M226.558 257.572H216.056V268.074H226.558V257.572Z" stroke="#F2E4E4" stroke-width="1.05021" stroke-miterlimit="10"/>
<path d="M237.06 257.572H226.558V268.074H237.06V257.572Z" stroke="#F2E4E4" stroke-width="1.05021" stroke-miterlimit="10"/>
<path d="M247.563 257.572H237.061V268.074H247.563V257.572Z" stroke="#F2E4E4" stroke-width="1.05021" stroke-miterlimit="10"/>
<path d="M258.065 257.572H247.562V268.074H258.065V257.572Z" stroke="#F2E4E4" stroke-width="1.05021" stroke-miterlimit="10"/>
<path d="M268.567 257.572H258.064V268.074H268.567V257.572Z" stroke="#F2E4E4" stroke-width="1.05021" stroke-miterlimit="10"/>
<path d="M279.069 257.572H268.567V268.074H279.069V257.572Z" stroke="#F2E4E4" stroke-width="1.05021" stroke-miterlimit="10"/>
<path d="M289.571 257.572H279.069V268.074H289.571V257.572Z" stroke="#F2E4E4" stroke-width="1.05021" stroke-miterlimit="10"/>
<path d="M300.073 257.572H289.571V268.074H300.073V257.572Z" stroke="#F2E4E4" stroke-width="1.05021" stroke-miterlimit="10"/>
<path d="M310.575 257.572H300.073V268.074H310.575V257.572Z" stroke="#F2E4E4" stroke-width="1.05021" stroke-miterlimit="10"/>
<path d="M69.0272 268.076H58.5251V278.578H69.0272V268.076Z" stroke="#F2E4E4" stroke-width="1.05021" stroke-miterlimit="10"/>
<path d="M79.5292 268.076H69.0271V278.578H79.5292V268.076Z" stroke="#F2E4E4" stroke-width="1.05021" stroke-miterlimit="10"/>
<path d="M90.0314 268.076H79.5293V278.578H90.0314V268.076Z" stroke="#F2E4E4" stroke-width="1.05021" stroke-miterlimit="10"/>
<path d="M100.533 268.076H90.0312V278.578H100.533V268.076Z" stroke="#F2E4E4" stroke-width="1.05021" stroke-miterlimit="10"/>
<path d="M111.036 268.076H100.533V278.578H111.036V268.076Z" stroke="#F2E4E4" stroke-width="1.05021" stroke-miterlimit="10"/>
<path d="M121.537 268.076H111.035V278.578H121.537V268.076Z" stroke="#F2E4E4" stroke-width="1.05021" stroke-miterlimit="10"/>
<path d="M132.04 268.076H121.538V278.578H132.04V268.076Z" stroke="#F2E4E4" stroke-width="1.05021" stroke-miterlimit="10"/>
<path d="M142.542 268.076H132.04V278.578H142.542V268.076Z" stroke="#F2E4E4" stroke-width="1.05021" stroke-miterlimit="10"/>
<path d="M153.044 268.076H142.542V278.578H153.044V268.076Z" stroke="#F2E4E4" stroke-width="1.05021" stroke-miterlimit="10"/>
<path d="M163.546 268.076H153.044V278.578H163.546V268.076Z" stroke="#F2E4E4" stroke-width="1.05021" stroke-miterlimit="10"/>
<path d="M174.048 268.076H163.546V278.578H174.048V268.076Z" stroke="#F2E4E4" stroke-width="1.05021" stroke-miterlimit="10"/>
<path d="M184.55 268.076H174.048V278.578H184.55V268.076Z" stroke="#F2E4E4" stroke-width="1.05021" stroke-miterlimit="10"/>
<path d="M195.052 268.076H184.55V278.578H195.052V268.076Z" stroke="#F2E4E4" stroke-width="1.05021" stroke-miterlimit="10"/>
<path d="M205.554 268.076H195.052V278.578H205.554V268.076Z" stroke="#F2E4E4" stroke-width="1.05021" stroke-miterlimit="10"/>
<path d="M216.056 268.076H205.554V278.578H216.056V268.076Z" stroke="#F2E4E4" stroke-width="1.05021" stroke-miterlimit="10"/>
<path d="M226.558 268.076H216.056V278.578H226.558V268.076Z" stroke="#F2E4E4" stroke-width="1.05021" stroke-miterlimit="10"/>
<path d="M237.06 268.076H226.558V278.578H237.06V268.076Z" stroke="#F2E4E4" stroke-width="1.05021" stroke-miterlimit="10"/>
<path d="M247.563 268.076H237.061V278.578H247.563V268.076Z" stroke="#F2E4E4" stroke-width="1.05021" stroke-miterlimit="10"/>
<path d="M258.065 268.076H247.562V278.578H258.065V268.076Z" stroke="#F2E4E4" stroke-width="1.05021" stroke-miterlimit="10"/>
<path d="M268.567 268.076H258.064V278.578H268.567V268.076Z" stroke="#F2E4E4" stroke-width="1.05021" stroke-miterlimit="10"/>
<path d="M279.069 268.076H268.567V278.578H279.069V268.076Z" stroke="#F2E4E4" stroke-width="1.05021" stroke-miterlimit="10"/>
<path d="M289.571 268.076H279.069V278.578H289.571V268.076Z" stroke="#F2E4E4" stroke-width="1.05021" stroke-miterlimit="10"/>
<path d="M300.073 268.076H289.571V278.578H300.073V268.076Z" stroke="#F2E4E4" stroke-width="1.05021" stroke-miterlimit="10"/>
<path d="M310.575 268.076H300.073V278.578H310.575V268.076Z" stroke="#F2E4E4" stroke-width="1.05021" stroke-miterlimit="10"/>
<path d="M69.0272 278.578H58.5251V289.08H69.0272V278.578Z" stroke="#F2E4E4" stroke-width="1.05021" stroke-miterlimit="10"/>
<path d="M79.5292 278.578H69.0271V289.08H79.5292V278.578Z" stroke="#F2E4E4" stroke-width="1.05021" stroke-miterlimit="10"/>
<path d="M90.0314 278.578H79.5293V289.08H90.0314V278.578Z" stroke="#F2E4E4" stroke-width="1.05021" stroke-miterlimit="10"/>
<path d="M100.533 278.578H90.0312V289.08H100.533V278.578Z" stroke="#F2E4E4" stroke-width="1.05021" stroke-miterlimit="10"/>
<path d="M111.036 278.578H100.533V289.08H111.036V278.578Z" stroke="#F2E4E4" stroke-width="1.05021" stroke-miterlimit="10"/>
<path d="M121.537 278.578H111.035V289.08H121.537V278.578Z" stroke="#F2E4E4" stroke-width="1.05021" stroke-miterlimit="10"/>
<path d="M132.04 278.578H121.538V289.08H132.04V278.578Z" stroke="#F2E4E4" stroke-width="1.05021" stroke-miterlimit="10"/>
<path d="M142.542 278.578H132.04V289.08H142.542V278.578Z" stroke="#F2E4E4" stroke-width="1.05021" stroke-miterlimit="10"/>
<path d="M153.044 278.578H142.542V289.08H153.044V278.578Z" stroke="#F2E4E4" stroke-width="1.05021" stroke-miterlimit="10"/>
<path d="M163.546 278.578H153.044V289.08H163.546V278.578Z" stroke="#F2E4E4" stroke-width="1.05021" stroke-miterlimit="10"/>
<path d="M174.048 278.578H163.546V289.08H174.048V278.578Z" stroke="#F2E4E4" stroke-width="1.05021" stroke-miterlimit="10"/>
<path d="M184.55 278.578H174.048V289.08H184.55V278.578Z" stroke="#F2E4E4" stroke-width="1.05021" stroke-miterlimit="10"/>
<path d="M195.052 278.578H184.55V289.08H195.052V278.578Z" stroke="#F2E4E4" stroke-width="1.05021" stroke-miterlimit="10"/>
<path d="M205.554 278.578H195.052V289.08H205.554V278.578Z" stroke="#F2E4E4" stroke-width="1.05021" stroke-miterlimit="10"/>
<path d="M216.056 278.578H205.554V289.08H216.056V278.578Z" stroke="#F2E4E4" stroke-width="1.05021" stroke-miterlimit="10"/>
<path d="M226.558 278.578H216.056V289.08H226.558V278.578Z" stroke="#F2E4E4" stroke-width="1.05021" stroke-miterlimit="10"/>
<path d="M237.06 278.578H226.558V289.08H237.06V278.578Z" stroke="#F2E4E4" stroke-width="1.05021" stroke-miterlimit="10"/>
<path d="M247.563 278.578H237.061V289.08H247.563V278.578Z" stroke="#F2E4E4" stroke-width="1.05021" stroke-miterlimit="10"/>
<path d="M258.065 278.578H247.562V289.08H258.065V278.578Z" stroke="#F2E4E4" stroke-width="1.05021" stroke-miterlimit="10"/>
<path d="M268.567 278.578H258.064V289.08H268.567V278.578Z" stroke="#F2E4E4" stroke-width="1.05021" stroke-miterlimit="10"/>
<path d="M279.069 278.578H268.567V289.08H279.069V278.578Z" stroke="#F2E4E4" stroke-width="1.05021" stroke-miterlimit="10"/>
<path d="M289.571 278.578H279.069V289.08H289.571V278.578Z" stroke="#F2E4E4" stroke-width="1.05021" stroke-miterlimit="10"/>
<path d="M300.073 278.578H289.571V289.08H300.073V278.578Z" stroke="#F2E4E4" stroke-width="1.05021" stroke-miterlimit="10"/>
<path d="M310.575 278.578H300.073V289.08H310.575V278.578Z" stroke="#F2E4E4" stroke-width="1.05021" stroke-miterlimit="10"/>
<path d="M69.0272 289.08H58.5251V299.582H69.0272V289.08Z" stroke="#F2E4E4" stroke-width="1.05021" stroke-miterlimit="10"/>
<path d="M79.5292 289.08H69.0271V299.582H79.5292V289.08Z" stroke="#F2E4E4" stroke-width="1.05021" stroke-miterlimit="10"/>
<path d="M90.0314 289.08H79.5293V299.582H90.0314V289.08Z" stroke="#F2E4E4" stroke-width="1.05021" stroke-miterlimit="10"/>
<path d="M100.533 289.08H90.0312V299.582H100.533V289.08Z" stroke="#F2E4E4" stroke-width="1.05021" stroke-miterlimit="10"/>
<path d="M111.036 289.08H100.533V299.582H111.036V289.08Z" stroke="#F2E4E4" stroke-width="1.05021" stroke-miterlimit="10"/>
<path d="M121.537 289.08H111.035V299.582H121.537V289.08Z" stroke="#F2E4E4" stroke-width="1.05021" stroke-miterlimit="10"/>
<path d="M132.04 289.08H121.538V299.582H132.04V289.08Z" stroke="#F2E4E4" stroke-width="1.05021" stroke-miterlimit="10"/>
<path d="M142.542 289.08H132.04V299.582H142.542V289.08Z" stroke="#F2E4E4" stroke-width="1.05021" stroke-miterlimit="10"/>
<path d="M153.044 289.08H142.542V299.582H153.044V289.08Z" stroke="#F2E4E4" stroke-width="1.05021" stroke-miterlimit="10"/>
<path d="M163.546 289.08H153.044V299.582H163.546V289.08Z" stroke="#F2E4E4" stroke-width="1.05021" stroke-miterlimit="10"/>
<path d="M174.048 289.08H163.546V299.582H174.048V289.08Z" stroke="#F2E4E4" stroke-width="1.05021" stroke-miterlimit="10"/>
<path d="M184.55 289.08H174.048V299.582H184.55V289.08Z" stroke="#F2E4E4" stroke-width="1.05021" stroke-miterlimit="10"/>
<path d="M195.052 289.08H184.55V299.582H195.052V289.08Z" stroke="#F2E4E4" stroke-width="1.05021" stroke-miterlimit="10"/>
<path d="M205.554 289.08H195.052V299.582H205.554V289.08Z" stroke="#F2E4E4" stroke-width="1.05021" stroke-miterlimit="10"/>
<path d="M216.056 289.08H205.554V299.582H216.056V289.08Z" stroke="#F2E4E4" stroke-width="1.05021" stroke-miterlimit="10"/>
<path d="M226.558 289.08H216.056V299.582H226.558V289.08Z" stroke="#F2E4E4" stroke-width="1.05021" stroke-miterlimit="10"/>
<path d="M237.06 289.08H226.558V299.582H237.06V289.08Z" stroke="#F2E4E4" stroke-width="1.05021" stroke-miterlimit="10"/>
<path d="M247.563 289.08H237.061V299.582H247.563V289.08Z" stroke="#F2E4E4" stroke-width="1.05021" stroke-miterlimit="10"/>
<path d="M258.065 289.08H247.562V299.582H258.065V289.08Z" stroke="#F2E4E4" stroke-width="1.05021" stroke-miterlimit="10"/>
<path d="M268.567 289.08H258.064V299.582H268.567V289.08Z" stroke="#F2E4E4" stroke-width="1.05021" stroke-miterlimit="10"/>
<path d="M279.069 289.08H268.567V299.582H279.069V289.08Z" stroke="#F2E4E4" stroke-width="1.05021" stroke-miterlimit="10"/>
<path d="M289.571 289.08H279.069V299.582H289.571V289.08Z" stroke="#F2E4E4" stroke-width="1.05021" stroke-miterlimit="10"/>
<path d="M300.073 289.08H289.571V299.582H300.073V289.08Z" stroke="#F2E4E4" stroke-width="1.05021" stroke-miterlimit="10"/>
<path d="M310.575 289.08H300.073V299.582H310.575V289.08Z" stroke="#F2E4E4" stroke-width="1.05021" stroke-miterlimit="10"/>
<path d="M69.0272 299.582H58.5251V310.084H69.0272V299.582Z" stroke="#F2E4E4" stroke-width="1.05021" stroke-miterlimit="10"/>
<path d="M79.5292 299.582H69.0271V310.084H79.5292V299.582Z" stroke="#F2E4E4" stroke-width="1.05021" stroke-miterlimit="10"/>
<path d="M90.0314 299.582H79.5293V310.084H90.0314V299.582Z" stroke="#F2E4E4" stroke-width="1.05021" stroke-miterlimit="10"/>
<path d="M100.533 299.582H90.0312V310.084H100.533V299.582Z" stroke="#F2E4E4" stroke-width="1.05021" stroke-miterlimit="10"/>
<path d="M111.036 299.582H100.533V310.084H111.036V299.582Z" stroke="#F2E4E4" stroke-width="1.05021" stroke-miterlimit="10"/>
<path d="M121.537 299.582H111.035V310.084H121.537V299.582Z" stroke="#F2E4E4" stroke-width="1.05021" stroke-miterlimit="10"/>
<path d="M132.04 299.582H121.538V310.084H132.04V299.582Z" stroke="#F2E4E4" stroke-width="1.05021" stroke-miterlimit="10"/>
<path d="M142.542 299.582H132.04V310.084H142.542V299.582Z" stroke="#F2E4E4" stroke-width="1.05021" stroke-miterlimit="10"/>
<path d="M153.044 299.582H142.542V310.084H153.044V299.582Z" stroke="#F2E4E4" stroke-width="1.05021" stroke-miterlimit="10"/>
<path d="M163.546 299.582H153.044V310.084H163.546V299.582Z" stroke="#F2E4E4" stroke-width="1.05021" stroke-miterlimit="10"/>
<path d="M174.048 299.582H163.546V310.084H174.048V299.582Z" stroke="#F2E4E4" stroke-width="1.05021" stroke-miterlimit="10"/>
<path d="M184.55 299.582H174.048V310.084H184.55V299.582Z" stroke="#F2E4E4" stroke-width="1.05021" stroke-miterlimit="10"/>
<path d="M195.052 299.582H184.55V310.084H195.052V299.582Z" stroke="#F2E4E4" stroke-width="1.05021" stroke-miterlimit="10"/>
<path d="M205.554 299.582H195.052V310.084H205.554V299.582Z" stroke="#F2E4E4" stroke-width="1.05021" stroke-miterlimit="10"/>
<path d="M216.056 299.582H205.554V310.084H216.056V299.582Z" stroke="#F2E4E4" stroke-width="1.05021" stroke-miterlimit="10"/>
<path d="M226.558 299.582H216.056V310.084H226.558V299.582Z" stroke="#F2E4E4" stroke-width="1.05021" stroke-miterlimit="10"/>
<path d="M237.06 299.582H226.558V310.084H237.06V299.582Z" stroke="#F2E4E4" stroke-width="1.05021" stroke-miterlimit="10"/>
<path d="M247.563 299.582H237.061V310.084H247.563V299.582Z" stroke="#F2E4E4" stroke-width="1.05021" stroke-miterlimit="10"/>
<path d="M258.065 299.582H247.562V310.084H258.065V299.582Z" stroke="#F2E4E4" stroke-width="1.05021" stroke-miterlimit="10"/>
<path d="M268.567 299.582H258.064V310.084H268.567V299.582Z" stroke="#F2E4E4" stroke-width="1.05021" stroke-miterlimit="10"/>
<path d="M279.069 299.582H268.567V310.084H279.069V299.582Z" stroke="#F2E4E4" stroke-width="1.05021" stroke-miterlimit="10"/>
<path d="M289.571 299.582H279.069V310.084H289.571V299.582Z" stroke="#F2E4E4" stroke-width="1.05021" stroke-miterlimit="10"/>
<path d="M300.073 299.582H289.571V310.084H300.073V299.582Z" stroke="#F2E4E4" stroke-width="1.05021" stroke-miterlimit="10"/>
<path d="M310.575 299.582H300.073V310.084H310.575V299.582Z" stroke="#F2E4E4" stroke-width="1.05021" stroke-miterlimit="10"/>
<path d="M147.058 217.356C109.765 216.231 80 185.774 80 148.221C80 109.977 110.977 79 149.221 79C187.466 79 218.443 109.977 218.443 148.221C218.443 149 218.443 149.865 218.356 150.644" stroke="#5849E0" stroke-width="10.5" stroke-miterlimit="10"/>
<path d="M129.32 145.163C130.747 145.163 131.944 146.361 131.944 147.787C131.944 149.214 130.747 150.411 129.32 150.411C127.894 150.411 126.696 149.214 126.696 147.787C126.696 146.361 127.893 145.163 129.32 145.163Z" fill="#5849E0" stroke="#5849E0" stroke-width="10.5"/>
<path d="M149.22 126.128C150.647 126.128 151.844 127.325 151.844 128.752C151.844 130.179 150.646 131.376 149.22 131.376C147.793 131.376 146.596 130.179 146.596 128.752C146.596 127.325 147.793 126.128 149.22 126.128Z" fill="#5849E0" stroke="#5849E0" stroke-width="10.5"/>
<path d="M169.122 139.913C164.796 139.913 161.249 143.461 161.249 147.787C161.249 152.114 164.796 155.661 169.122 155.661C173.449 155.661 176.996 152.114 176.996 147.787C176.996 143.461 173.449 139.913 169.122 139.913Z" fill="#5849E0"/>
<path d="M149.22 159.816C144.893 159.816 141.346 163.363 141.346 167.69C141.346 172.016 144.893 175.564 149.22 175.564C153.546 175.564 157.094 172.016 157.094 167.69C157.094 163.363 153.546 159.816 149.22 159.816Z" fill="#5849E0"/>
<path d="M216.193 288.999C254.423 288.999 285.414 258.008 285.414 219.778C285.414 181.548 254.423 150.557 216.193 150.557C177.963 150.557 146.972 181.548 146.972 219.778C146.972 258.008 177.963 288.999 216.193 288.999Z" stroke="#5849E0" stroke-width="10.5" stroke-miterlimit="10"/>
<path d="M196.294 211.47C191.967 211.47 188.42 215.018 188.42 219.344C188.42 223.67 191.967 227.218 196.294 227.218C200.62 227.218 204.168 223.67 204.168 219.344C204.168 215.018 200.62 211.47 196.294 211.47Z" fill="#5849E0"/>
<path d="M216.193 192.435C211.867 192.435 208.319 195.982 208.319 200.309C208.319 204.635 211.867 208.183 216.193 208.183C220.519 208.183 224.067 204.635 224.067 200.309C224.067 195.982 220.519 192.435 216.193 192.435Z" fill="#5849E0"/>
<path d="M236.096 211.47C231.77 211.47 228.222 215.018 228.222 219.344C228.222 223.67 231.77 227.218 236.096 227.218C240.422 227.218 243.97 223.67 243.97 219.344C243.97 215.018 240.422 211.47 236.096 211.47Z" fill="#5849E0"/>
<path d="M216.193 231.372C211.867 231.372 208.319 234.92 208.319 239.246C208.319 243.572 211.867 247.12 216.193 247.12C220.519 247.12 224.067 243.572 224.067 239.246C224.067 234.92 220.519 231.372 216.193 231.372Z" fill="#5849E0"/>
</g>
<rect x="57" y="57.5" width="23" height="253" fill="#FF0000" fill-opacity="0.2"/>
<rect x="288" y="57.5" width="23" height="253" fill="#FF0000" fill-opacity="0.2"/>
<rect x="310.5" y="57" width="23" height="253" transform="rotate(90 310.5 57)" fill="#FF0000" fill-opacity="0.2"/>
<rect x="310.5" y="288" width="23" height="253" transform="rotate(90 310.5 288)" fill="#FF0000" fill-opacity="0.2"/>
<path d="M311 56H57.3835V311H311V56Z" stroke="#0000FF" stroke-opacity="0.4" stroke-miterlimit="10"/>
<path d="M141.893 56.6058V311" stroke="#0000FF" stroke-opacity="0.4" stroke-miterlimit="10"/>
<path d="M226.652 56.6058V311" stroke="#0000FF" stroke-opacity="0.4" stroke-miterlimit="10"/>
<path d="M184.273 56.6058V311" stroke="#0000FF" stroke-opacity="0.4" stroke-miterlimit="10"/>
<path d="M57.9756 226.39H310.989" stroke="#0000FF" stroke-opacity="0.4" stroke-miterlimit="10"/>
<path d="M57.9756 141.176H310.989" stroke="#0000FF" stroke-opacity="0.4" stroke-miterlimit="10"/>
<path d="M57.9756 183.779H310.989" stroke="#0000FF" stroke-opacity="0.4" stroke-miterlimit="10"/>
<path d="M57.3835 56L311 311" stroke="#0000FF" stroke-opacity="0.4" stroke-miterlimit="10"/>
<path d="M57.3835 311L311 56" stroke="#0000FF" stroke-opacity="0.4" stroke-miterlimit="10"/>
<path d="M184.192 237.423C213.811 237.423 237.822 213.281 237.822 183.501C237.822 153.72 213.811 129.578 184.192 129.578C154.573 129.578 130.562 153.72 130.562 183.501C130.562 213.281 154.573 237.423 184.192 237.423Z" stroke="#0000FF" stroke-opacity="0.4" stroke-miterlimit="10"/>
<path d="M184.192 289.834C242.6 289.834 289.949 242.904 289.949 185.012C289.949 127.12 242.6 80.1898 184.192 80.1898C125.784 80.1898 78.4348 127.12 78.4348 185.012C78.4348 242.904 125.784 289.834 184.192 289.834Z" stroke="#0000FF" stroke-opacity="0.4" stroke-miterlimit="10"/>
<path d="M268.798 98.3312H99.5862C87.9046 98.3312 78.4348 107.864 78.4348 119.623V247.375C78.4348 259.134 87.9046 268.667 99.5862 268.667H268.798C280.479 268.667 289.949 259.134 289.949 247.375V119.623C289.949 107.864 280.479 98.3312 268.798 98.3312Z" stroke="#0000FF" stroke-opacity="0.4" stroke-miterlimit="10"/>
<path d="M258.544 87.2446H109.839C98.0313 87.2446 88.459 96.8691 88.459 108.742V258.258C88.459 270.13 98.0313 279.755 109.839 279.755H258.544C270.352 279.755 279.924 270.13 279.924 258.258V108.742C279.924 96.8691 270.352 87.2446 258.544 87.2446Z" stroke="#0000FF" stroke-opacity="0.4" stroke-miterlimit="10"/>
<path d="M99.4858 101.154L99.4858 268.87C99.4858 280.448 108.967 289.834 120.662 289.834H247.721C259.417 289.834 268.898 280.448 268.898 268.87V101.154C268.898 89.5762 259.417 80.1901 247.721 80.1901H120.662C108.967 80.1901 99.4858 89.5762 99.4858 101.154Z" stroke="#0000FF" stroke-opacity="0.4" stroke-miterlimit="10"/>
<path d="M79 57.5H39.5H0" stroke="#FF0000" stroke-width="2"/>
<path d="M79 310H39.5H0" stroke="#FF0000" stroke-width="2"/>
<path d="M35.7071 58.2929C35.3166 57.9024 34.6834 57.9024 34.2929 58.2929L27.9289 64.6569C27.5384 65.0474 27.5384 65.6805 27.9289 66.0711C28.3195 66.4616 28.9526 66.4616 29.3431 66.0711L35 60.4142L40.6569 66.0711C41.0474 66.4616 41.6805 66.4616 42.0711 66.0711C42.4616 65.6805 42.4616 65.0474 42.0711 64.6569L35.7071 58.2929ZM34 59V158H36V59H34Z" fill="#FF0000"/>
<path d="M34.2929 308.707C34.6834 309.098 35.3166 309.098 35.7071 308.707L42.0711 302.343C42.4616 301.953 42.4616 301.319 42.0711 300.929C41.6805 300.538 41.0474 300.538 40.6569 300.929L35 306.586L29.3431 300.929C28.9526 300.538 28.3195 300.538 27.9289 300.929C27.5384 301.319 27.5384 301.953 27.9289 302.343L34.2929 308.707ZM34 209V308H36V209H34Z" fill="#FF0000"/>
<path d="M18.048 183.584L15.456 184.8L15.376 184.4H21.344V186H12.816V184.4C13.776 183.963 14.64 183.589 15.408 183.28C16.176 182.971 16.8267 182.693 17.36 182.448C17.8933 182.192 18.2987 181.936 18.576 181.68C18.864 181.413 19.008 181.12 19.008 180.8C19.008 180.544 18.9333 180.325 18.784 180.144C18.6347 179.952 18.4 179.803 18.08 179.696C17.76 179.589 17.344 179.536 16.832 179.536C16.16 179.536 15.616 179.669 15.2 179.936C14.7947 180.192 14.5813 180.544 14.56 180.992H12.544C12.512 180.373 12.6613 179.829 12.992 179.36C13.3333 178.891 13.8293 178.523 14.48 178.256C15.1307 177.989 15.8987 177.856 16.784 177.856C17.4347 177.856 18.0267 177.92 18.56 178.048C19.0933 178.165 19.552 178.341 19.936 178.576C20.3307 178.811 20.6293 179.093 20.832 179.424C21.0453 179.755 21.152 180.128 21.152 180.544C21.152 180.864 21.0933 181.157 20.976 181.424C20.8587 181.68 20.672 181.925 20.416 182.16C20.1707 182.395 19.8507 182.629 19.456 182.864C19.0613 183.088 18.592 183.328 18.048 183.584ZM31.0404 177.984V188.32H28.9604V179.664L29.5844 179.888L24.7844 185.28L24.4804 184.576H29.2164V186.176H22.8964V184.576L28.9604 177.984H31.0404ZM30.7844 186.176V184.576H32.8804V186.176H30.7844ZM40.4314 186.192C39.7274 186.192 39.1247 186.069 38.6234 185.824C38.1327 185.568 37.7327 185.237 37.4234 184.832C37.114 184.416 36.8847 183.963 36.7354 183.472C36.586 182.981 36.5114 182.501 36.5114 182.032C36.5114 181.445 36.5807 180.901 36.7194 180.4C36.8687 179.899 37.098 179.461 37.4074 179.088C37.7167 178.704 38.1167 178.405 38.6074 178.192C39.1087 177.979 39.7167 177.872 40.4314 177.872C41.2314 177.872 41.9514 178.048 42.5914 178.4C43.2314 178.752 43.738 179.243 44.1114 179.872C44.4954 180.491 44.6874 181.211 44.6874 182.032C44.6874 182.875 44.4954 183.611 44.1114 184.24C43.7274 184.859 43.2154 185.339 42.5754 185.68C41.9354 186.021 41.2207 186.192 40.4314 186.192ZM39.7594 184.576C40.3247 184.576 40.8154 184.469 41.2314 184.256C41.658 184.043 41.9834 183.749 42.2074 183.376C42.442 182.992 42.5594 182.544 42.5594 182.032C42.5594 181.264 42.314 180.645 41.8234 180.176C41.3434 179.707 40.6554 179.472 39.7594 179.472C39.194 179.472 38.6767 179.573 38.2074 179.776C37.7487 179.979 37.386 180.272 37.1194 180.656C36.8527 181.029 36.7194 181.488 36.7194 182.032C36.7194 182.544 36.842 182.992 37.0874 183.376C37.3327 183.749 37.6847 184.043 38.1434 184.256C38.602 184.469 39.1407 184.576 39.7594 184.576ZM34.6394 178.048H36.6234L36.7194 180.16V189.2H34.6394V178.048ZM55.3855 178.048L51.2575 182.48L48.2815 186H45.7375L50.0415 181.344L52.8575 178.048H55.3855ZM45.7375 178.048H48.2815L51.2895 181.312L55.6095 186H53.0655L49.9775 182.528L45.7375 178.048Z" fill="#FF0000"/>
<path d="M310.5 79L310.5 39.5L310.5 0" stroke="#FF0000" stroke-width="2"/>
<path d="M58 79L58 39.5L58 0" stroke="#FF0000" stroke-width="2"/>
<path d="M309.707 35.7071C310.098 35.3166 310.098 34.6834 309.707 34.2929L303.343 27.9289C302.953 27.5384 302.319 27.5384 301.929 27.9289C301.538 28.3195 301.538 28.9526 301.929 29.3431L307.586 35L301.929 40.6569C301.538 41.0474 301.538 41.6805 301.929 42.0711C302.319 42.4616 302.953 42.4616 303.343 42.0711L309.707 35.7071ZM309 34L210 34L210 36L309 36L309 34Z" fill="#FF0000"/>
<path d="M59.2929 34.2929C58.9024 34.6834 58.9024 35.3166 59.2929 35.7071L65.6569 42.0711C66.0474 42.4616 66.6805 42.4616 67.0711 42.0711C67.4616 41.6805 67.4616 41.0474 67.0711 40.6569L61.4142 35L67.0711 29.3431C67.4616 28.9526 67.4616 28.3195 67.0711 27.9289C66.6805 27.5384 66.0474 27.5384 65.6569 27.9289L59.2929 34.2929ZM159 34L60 34L60 36L159 36L159 34Z" fill="#FF0000"/>
<path d="M169.548 37.084L166.956 38.3L166.876 37.9H172.844V39.5H164.316V37.9C165.276 37.4627 166.14 37.0893 166.908 36.78C167.676 36.4707 168.327 36.1933 168.86 35.948C169.393 35.692 169.799 35.436 170.076 35.18C170.364 34.9133 170.508 34.62 170.508 34.3C170.508 34.044 170.433 33.8253 170.284 33.644C170.135 33.452 169.9 33.3027 169.58 33.196C169.26 33.0893 168.844 33.036 168.332 33.036C167.66 33.036 167.116 33.1693 166.7 33.436C166.295 33.692 166.081 34.044 166.06 34.492H164.044C164.012 33.8733 164.161 33.3293 164.492 32.86C164.833 32.3907 165.329 32.0227 165.98 31.756C166.631 31.4893 167.399 31.356 168.284 31.356C168.935 31.356 169.527 31.42 170.06 31.548C170.593 31.6653 171.052 31.8413 171.436 32.076C171.831 32.3107 172.129 32.5933 172.332 32.924C172.545 33.2547 172.652 33.628 172.652 34.044C172.652 34.364 172.593 34.6573 172.476 34.924C172.359 35.18 172.172 35.4253 171.916 35.66C171.671 35.8947 171.351 36.1293 170.956 36.364C170.561 36.588 170.092 36.828 169.548 37.084ZM182.54 31.484V41.82H180.46V33.164L181.084 33.388L176.284 38.78L175.98 38.076H180.716V39.676H174.396V38.076L180.46 31.484H182.54ZM182.284 39.676V38.076H184.38V39.676H182.284ZM191.931 39.692C191.227 39.692 190.625 39.5693 190.123 39.324C189.633 39.068 189.233 38.7373 188.923 38.332C188.614 37.916 188.385 37.4627 188.235 36.972C188.086 36.4813 188.011 36.0013 188.011 35.532C188.011 34.9453 188.081 34.4013 188.219 33.9C188.369 33.3987 188.598 32.9613 188.907 32.588C189.217 32.204 189.617 31.9053 190.107 31.692C190.609 31.4787 191.217 31.372 191.931 31.372C192.731 31.372 193.451 31.548 194.091 31.9C194.731 32.252 195.238 32.7427 195.611 33.372C195.995 33.9907 196.187 34.7107 196.187 35.532C196.187 36.3747 195.995 37.1107 195.611 37.74C195.227 38.3587 194.715 38.8387 194.075 39.18C193.435 39.5213 192.721 39.692 191.931 39.692ZM191.259 38.076C191.825 38.076 192.315 37.9693 192.731 37.756C193.158 37.5427 193.483 37.2493 193.707 36.876C193.942 36.492 194.059 36.044 194.059 35.532C194.059 34.764 193.814 34.1453 193.323 33.676C192.843 33.2067 192.155 32.972 191.259 32.972C190.694 32.972 190.177 33.0733 189.707 33.276C189.249 33.4787 188.886 33.772 188.619 34.156C188.353 34.5293 188.219 34.988 188.219 35.532C188.219 36.044 188.342 36.492 188.587 36.876C188.833 37.2493 189.185 37.5427 189.643 37.756C190.102 37.9693 190.641 38.076 191.259 38.076ZM186.139 31.548H188.123L188.219 33.66V42.7H186.139V31.548ZM206.885 31.548L202.757 35.98L199.781 39.5H197.237L201.541 34.844L204.358 31.548H206.885ZM197.237 31.548H199.781L202.789 34.812L207.109 39.5H204.565L201.477 36.028L197.237 31.548Z" fill="#FF0000"/>
<defs>
<clipPath id="clip0_331_25293">
<rect width="253.1" height="253.1" fill="white" transform="translate(58 57.5)"/>
</clipPath>
</defs>
</svg>
