<svg width="254" height="251" viewBox="0 0 254 251" fill="none" xmlns="http://www.w3.org/2000/svg">
<path id="Ellipse 2350" d="M129.925 0.0341797C131.878 0.0777918 133.82 0.165125 135.75 0.294922L135.685 1.29102C137.618 1.42103 139.539 1.59437 141.447 1.80957L141.558 0.81543C143.497 1.03419 145.424 1.2984 147.336 1.60254L147.18 2.58789C149.092 2.89199 150.99 3.23886 152.872 3.62695L153.072 2.64844C154.983 3.04237 156.878 3.47734 158.756 3.95508L158.51 4.9248C160.386 5.402 162.245 5.92014 164.086 6.47949L164.375 5.52441C166.241 6.09141 168.089 6.70002 169.917 7.34863L169.583 8.28906C171.406 8.93567 173.21 9.62245 174.992 10.3486L175.368 9.42383C177.173 10.159 178.957 10.9332 180.719 11.7471L180.3 12.6543C182.054 13.4647 183.787 14.3143 185.496 15.2012L185.956 14.3145C187.685 15.2113 189.389 16.147 191.069 17.1191L190.571 17.9844C192.243 18.9516 193.891 19.956 195.513 20.9961L196.05 20.1553C197.689 21.2063 199.301 22.2935 200.887 23.416L200.311 24.2314C201.886 25.3472 203.436 26.498 204.956 27.6826L205.569 26.8936C207.104 28.0895 208.611 29.3188 210.088 30.582V30.583L209.438 31.3428C210.904 32.5976 212.342 33.8847 213.748 35.2041L214.431 34.4756C215.849 35.8064 217.236 37.1698 218.591 38.5635L217.876 39.2598C219.221 40.6431 220.534 42.0576 221.813 43.501L222.56 42.8379C223.849 44.2929 225.105 45.7778 226.327 47.291L225.551 47.918C226.762 49.4184 227.94 50.9471 229.081 52.5029L229.886 51.9121C231.035 53.479 232.151 55.0721 233.228 56.6924V56.6934L232.396 57.2461C233.462 58.8514 234.493 60.4829 235.485 62.1387L236.342 61.624C237.341 63.2902 238.301 64.9817 239.223 66.6963L238.344 67.1699C239.256 68.8664 240.13 70.5861 240.964 72.3281L241.863 71.8975C242.702 73.6487 243.5 75.4222 244.258 77.2168L243.339 77.6045C244.088 79.3782 244.796 81.1732 245.463 82.9873L246.4 82.6416C247.07 84.4629 247.699 86.3036 248.284 88.1631H248.285L247.331 88.4639C247.909 90.2982 248.445 92.1508 248.938 94.0205L249.902 93.7656C250.397 95.6399 250.847 97.5312 251.255 99.4385L250.28 99.6475C250.682 101.527 251.041 103.422 251.355 105.331L252.34 105.169C252.655 107.08 252.927 109.005 253.153 110.943L252.161 111.06C252.384 112.966 252.564 114.886 252.698 116.818L253.693 116.749C253.828 118.679 253.92 120.621 253.965 122.574L252.967 122.598C252.989 123.562 253 124.53 253 125.5C253 126.47 252.989 127.438 252.967 128.402L253.965 128.425C253.92 130.378 253.828 132.32 253.693 134.25L252.698 134.182C252.564 136.114 252.384 138.034 252.161 139.94L253.153 140.056C252.927 141.994 252.655 143.919 252.34 145.83L251.355 145.669C251.041 147.578 250.682 149.473 250.28 151.353L251.255 151.561C250.847 153.468 250.397 155.359 249.902 157.233L248.938 156.979C248.445 158.849 247.909 160.702 247.331 162.536L248.284 162.836C247.699 164.695 247.07 166.536 246.4 168.357L245.463 168.013C244.796 169.827 244.088 171.622 243.339 173.396L244.258 173.782C243.5 175.577 242.702 177.35 241.863 179.102L240.964 178.672C240.13 180.414 239.256 182.134 238.344 183.83L239.223 184.303C238.301 186.017 237.341 187.709 236.342 189.375L235.485 188.861C234.493 190.517 233.462 192.149 232.396 193.754L233.228 194.307C232.151 195.927 231.035 197.52 229.886 199.087L229.081 198.497C227.94 200.053 226.762 201.582 225.551 203.082L226.327 203.708C225.105 205.221 223.849 206.706 222.56 208.161L221.813 207.499C220.534 208.942 219.221 210.357 217.876 211.74L218.591 212.436C217.236 213.829 215.849 215.193 214.431 216.523L213.748 215.796C212.342 217.115 210.904 218.402 209.438 219.657L210.088 220.417C208.611 221.68 207.104 222.91 205.569 224.105L204.956 223.317C203.436 224.502 201.886 225.653 200.311 226.769L200.887 227.583C199.301 228.706 197.689 229.793 196.05 230.844L195.513 230.004C193.891 231.044 192.243 232.048 190.571 233.016L191.069 233.88C189.389 234.852 187.685 235.788 185.956 236.685L185.496 235.799C183.787 236.686 182.054 237.534 180.3 238.345L180.719 239.252C178.957 240.066 177.173 240.84 175.368 241.575L174.992 240.651C173.21 241.378 171.406 242.064 169.583 242.711L169.917 243.65C168.089 244.299 166.241 244.908 164.375 245.475L164.086 244.521C162.245 245.08 160.386 245.598 158.51 246.075L158.756 247.044C156.878 247.522 154.983 247.957 153.072 248.351L152.872 247.373C150.99 247.761 149.092 248.108 147.18 248.412L147.336 249.396C145.424 249.701 143.497 249.965 141.558 250.184L141.447 249.19C139.539 249.406 137.618 249.579 135.685 249.709L135.75 250.704C133.82 250.834 131.878 250.921 129.925 250.965L129.903 249.968C128.938 249.989 127.97 250 127 250C126.03 250 125.062 249.989 124.097 249.968L124.074 250.965C122.121 250.921 120.179 250.834 118.249 250.704L118.315 249.709C116.382 249.579 114.461 249.406 112.553 249.19L112.441 250.184C110.502 249.965 108.575 249.701 106.663 249.396L106.82 248.412C104.908 248.108 103.01 247.761 101.128 247.373L100.927 248.351C99.0162 247.957 97.1211 247.522 95.2432 247.044L95.4902 246.075C93.6145 245.598 91.7549 245.08 89.9141 244.521L89.624 245.475C87.7579 244.908 85.9104 244.299 84.082 243.65L84.417 242.711C82.5943 242.064 80.7905 241.378 79.0078 240.651L78.6309 241.575C76.8262 240.84 75.0421 240.066 73.2803 239.252L73.7002 238.346C71.9458 237.535 70.2132 236.686 68.5039 235.799L68.043 236.685C66.3145 235.788 64.61 234.852 62.9297 233.88L63.4287 233.016C61.7568 232.048 60.1089 231.044 58.4873 230.004L57.9492 230.844C56.3105 229.793 54.6977 228.706 53.1123 227.583L53.6895 226.769C52.1137 225.653 50.5643 224.502 49.0439 223.317L48.4297 224.105C46.8948 222.91 45.3877 221.68 43.9111 220.417L44.5625 219.657C43.0959 218.402 41.6581 217.115 40.252 215.796L39.5684 216.523C38.15 215.193 36.7632 213.829 35.4082 212.436L36.124 211.74C34.7791 210.357 33.4662 208.942 32.1865 207.499L31.4395 208.161C30.1496 206.706 28.8936 205.221 27.6719 203.708L28.4492 203.082C27.2378 201.582 26.0604 200.053 24.9189 198.497L24.1133 199.087C22.9637 197.52 21.8484 195.927 20.7715 194.307L21.6045 193.754C20.5375 192.149 19.5073 190.517 18.5146 188.861L17.6572 189.375C16.6583 187.709 15.6983 186.017 14.7764 184.303L15.6562 183.83C14.744 182.134 13.8701 180.414 13.0361 178.672L12.1357 179.102C11.2974 177.35 10.4988 175.577 9.74121 173.782L10.6611 173.396C9.91234 171.622 9.20408 169.827 8.53711 168.013L7.59863 168.357C6.92904 166.536 6.30039 164.695 5.71484 162.836L6.66895 162.536C6.09129 160.702 5.55549 158.849 5.0625 156.979L4.09668 157.233C3.6025 155.359 3.15175 153.468 2.74414 151.561L3.71973 151.353C3.31811 149.473 2.9593 147.578 2.64453 145.669L1.65918 145.83C1.34423 143.919 1.07229 141.994 0.845703 140.056L1.83887 139.94C1.61599 138.034 1.43643 136.114 1.30176 134.182L0.305664 134.25C0.171149 132.32 0.0793792 130.378 0.0341797 128.425L1.0332 128.402C1.01087 127.438 1 126.47 1 125.5C1 124.53 1.01087 123.562 1.0332 122.598L0.0341797 122.574C0.0793942 120.621 0.171134 118.679 0.305664 116.749L1.30176 116.818C1.43643 114.886 1.61599 112.966 1.83887 111.06L0.845703 110.943C1.0723 109.005 1.34421 107.08 1.65918 105.169L2.64453 105.331C2.9593 103.422 3.31811 101.527 3.71973 99.6475L2.74414 99.4385C3.15176 97.5312 3.60248 95.6399 4.09668 93.7656L5.0625 94.0205C5.55549 92.1508 6.09129 90.2982 6.66895 88.4639L5.71484 88.1631C6.30041 86.3036 6.92903 84.4629 7.59863 82.6416L8.53711 82.9873C9.20408 81.1732 9.91234 79.3782 10.6611 77.6045L9.74121 77.2168C10.4988 75.4222 11.2974 73.6487 12.1357 71.8975L13.0361 72.3281C13.8701 70.5861 14.744 68.8664 15.6562 67.1699L14.7764 66.6963C15.6983 64.9817 16.6583 63.2902 17.6572 61.624L18.5146 62.1387C19.5073 60.4829 20.5375 58.8514 21.6045 57.2461L20.7725 56.6934L20.7715 56.6924C21.8484 55.0721 22.9637 53.479 24.1133 51.9121L24.9189 52.5029C26.0604 50.9471 27.2378 49.4184 28.4492 47.918L27.6719 47.291C28.8936 45.7778 30.1496 44.2928 31.4395 42.8379L32.1865 43.501C33.4662 42.0576 34.7791 40.6431 36.124 39.2598L35.4082 38.5635C36.7632 37.1698 38.15 35.8064 39.5684 34.4756L40.252 35.2041C41.6581 33.8847 43.0959 32.5976 44.5625 31.3428L43.9121 30.583L43.9111 30.582C45.3877 29.3188 46.8948 28.0895 48.4297 26.8936L49.0439 27.6826C50.5643 26.498 52.1137 25.3472 53.6895 24.2314L53.1123 23.416C54.6977 22.2934 56.3105 21.2063 57.9492 20.1553L58.4873 20.9961C60.1089 19.956 61.7568 18.9516 63.4287 17.9844L62.9297 17.1191C64.61 16.147 66.3145 15.2113 68.043 14.3145L68.5039 15.2012C70.2131 14.3143 71.9458 13.4657 73.7002 12.6553L73.2803 11.7471C75.042 10.9332 76.8262 10.159 78.6309 9.42383L79.0078 10.3486C80.7905 9.62245 82.5943 8.93567 84.417 8.28906L84.082 7.34863C85.9104 6.70001 87.758 6.09143 89.624 5.52441L89.9141 6.47949C91.7549 5.92014 93.6145 5.402 95.4902 4.9248L95.2432 3.95508C97.1211 3.47732 99.0162 3.04239 100.927 2.64844L101.128 3.62695C103.01 3.23886 104.908 2.89199 106.82 2.58789L106.663 1.60254C108.575 1.29839 110.502 1.0342 112.441 0.81543L112.553 1.80957C114.461 1.59437 116.382 1.42103 118.315 1.29102L118.249 0.294922C120.179 0.16511 122.121 0.0778064 124.074 0.0341797L124.097 1.03223C125.062 1.01067 126.03 1 127 1C127.97 1 128.938 1.01067 129.903 1.03223L129.925 0.0341797Z" stroke="white" stroke-opacity="0.4" stroke-width="2" stroke-dasharray="6 6"/>
</svg>
